<svg viewBox="0.5 0 63.603 70.398" width="63.603" height="70.398" fill="none" xmlns="http://www.w3.org/2000/svg">
  <!-- <defs>
    <linearGradient id="blue_gradient" x1="150.5" y1="0" x2="150.5" y2="70.3976" gradientUnits="userSpaceOnUse">
      <stop stop-color="#15A0B0"></stop>
      <stop offset="1" stop-color="#074A59"></stop>
    </linearGradient>
  </defs> -->
  <path
    d="M36.2525 70.3952C45.8182 70.3791 54.9845 66.6429 61.7377 60.0074C62.15 59.5934 62.3794 59.0369 62.3756 58.4584C62.372 57.8796 62.1357 57.3259 61.7182 56.9168C61.3004 56.5074 60.7353 56.2759 60.1447 56.2724C59.5542 56.2686 58.9863 56.4934 58.5638 56.8974C52.6442 62.711 44.6103 65.9839 36.2276 65.9968C32.1112 66.0491 28.0255 65.293 24.2112 63.7731C20.3974 62.2531 16.9324 60.0002 14.0209 57.1473C11.1093 54.2943 8.81013 50.899 7.25891 47.1618C5.70792 43.4245 4.93628 39.421 4.98961 35.3874C5.01257 27.1747 8.35147 19.3059 14.2769 13.4997C20.2024 7.69339 28.2328 4.42168 36.6143 4.3991C40.7028 4.35096 44.7607 5.09859 48.5528 6.59863C52.3448 8.0987 55.7956 10.3213 58.7049 13.1377C59.303 13.7616 59.6287 14.5898 59.6127 15.4455C59.5967 16.3013 59.2401 17.1169 58.6189 17.7183C57.9979 18.32 57.1615 18.6599 56.288 18.6657C55.4146 18.6714 54.5733 18.3426 53.9435 17.7493C53.8862 17.6934 53.8258 17.6404 53.7628 17.5909C49.2217 13.4187 43.2109 11.1275 36.9875 11.1966C30.4691 11.2166 24.2243 13.7621 19.616 18.2777C15.0076 22.7934 12.4099 28.9123 12.3895 35.2996C12.3514 38.4476 12.9563 41.5714 14.1685 44.4873C15.3807 47.4031 17.1758 50.0523 19.448 52.2787C21.7201 54.5051 24.4237 56.2642 27.3995 57.452C30.375 58.6396 33.563 59.2324 36.7757 59.1951C43.2957 59.1835 49.5433 56.6365 54.1464 52.1133C54.8791 51.4086 55.4622 50.5681 55.8617 49.6411C56.2608 48.714 56.4688 47.7186 56.4733 46.7122C56.4777 45.7057 56.2788 44.7084 55.8877 43.7776C55.4967 42.8469 54.9215 42.0013 54.195 41.2894C53.4685 40.5776 52.6055 40.0139 51.6557 39.6308C50.7058 39.2476 49.688 39.0526 48.6609 39.057C47.6338 39.0613 46.6179 39.2652 45.6718 39.6563C44.7258 40.0477 43.8681 40.619 43.1488 41.337C43.1025 41.3824 43.062 41.428 43.0212 41.4751C42.9731 41.5151 42.9256 41.5557 42.8803 41.6001C41.6249 42.8507 40.0183 43.7073 38.2645 44.0616C36.5111 44.4159 34.6895 44.2515 33.0308 43.5898C31.3724 42.9279 29.9514 41.7982 28.9488 40.3444C27.9462 38.8901 27.4066 37.1773 27.399 35.4227C27.3913 33.6681 27.9156 31.9511 28.9056 30.4894C29.8955 29.0277 31.3064 27.8873 32.9591 27.2129C34.6119 26.5384 36.4321 26.3602 38.1887 26.7011C39.9453 27.0419 41.5593 27.8864 42.8257 29.1272C43.0332 29.3355 43.2808 29.5014 43.5541 29.6152C43.8275 29.7291 44.1211 29.7886 44.418 29.7903C44.7149 29.7921 45.0095 29.7363 45.284 29.6257C45.5588 29.5153 45.8084 29.3525 46.0183 29.1467C46.2283 28.941 46.3944 28.6965 46.5071 28.4273C46.62 28.1582 46.6769 27.8696 46.6751 27.5787C46.6733 27.2877 46.6126 27 46.4964 26.7321C46.3802 26.4643 46.2109 26.2217 45.9984 26.0184C44.1086 24.187 41.7077 22.9449 39.0988 22.4488C36.4899 21.9528 33.7898 22.2249 31.3391 23.2309C28.8885 24.2369 26.7971 25.9318 25.3288 28.1016C23.8605 30.2714 23.0813 32.8189 23.0891 35.4229C23.0971 38.0267 23.8919 40.5703 25.3733 42.7328C26.8547 44.8948 28.9565 46.5791 31.4131 47.5727C33.8698 48.5662 36.5715 48.8249 39.1774 48.3156C41.7833 47.8063 44.1765 46.5519 46.0551 44.7111C46.1014 44.6657 46.1419 44.6201 46.1826 44.5729C46.2308 44.533 46.2783 44.4924 46.3236 44.4479C46.6264 44.139 46.9892 43.8924 47.3909 43.7226C47.7921 43.5527 48.2244 43.4632 48.6613 43.459C49.0987 43.4547 49.5326 43.536 49.9374 43.6981C50.3422 43.8602 50.7102 44.1 51.0194 44.4029C51.3286 44.7059 51.5733 45.0665 51.7387 45.4632C51.9041 45.8598 51.9871 46.285 51.9828 46.7136C51.9784 47.1417 51.8871 47.5653 51.7137 47.9584C51.5404 48.352 51.2888 48.7075 50.9734 49.0042C47.2037 52.7062 42.0882 54.7901 36.7502 54.7981C34.1313 54.8323 31.5319 54.3518 29.1051 53.3852C26.6784 52.4187 24.4738 50.9853 22.6213 49.1701C20.7691 47.3551 19.3063 45.195 18.3199 42.817C17.3335 40.4391 16.8431 37.892 16.8779 35.3257C16.8921 30.0964 19.0179 25.0857 22.7909 21.3887C26.5638 17.6917 31.6773 15.6087 37.014 15.5947C39.6324 15.5633 42.2309 16.0448 44.657 17.0111C47.0831 17.9774 49.2878 19.4089 51.1418 21.2217C51.2846 21.3608 51.446 21.4805 51.6216 21.5775C53.1798 22.6984 55.105 23.2161 57.0283 23.0316C58.9516 22.8472 60.7374 21.9733 62.043 20.5777C63.3487 19.1822 64.0821 17.3629 64.1029 15.4694C64.1238 13.5759 63.4305 11.7413 62.156 10.3175C62.1052 10.2556 62.0509 10.1962 61.9936 10.1398C61.9617 10.1085 61.9299 10.0774 61.898 10.0461C61.8822 10.0306 61.8669 10.0157 61.8517 10.0007C61.8364 9.98571 61.8188 9.97209 61.803 9.95757C58.4779 6.75017 54.538 4.2192 50.2104 2.51058C45.8829 0.801926 41.2533 -0.05052 36.5886 0.00231384C27.0257 0.0310693 17.8642 3.76527 11.1034 10.39C4.3427 17.0147 0.53194 25.9917 0.502548 35.3622C0.445975 39.9774 1.332 44.5576 3.10902 48.8327C4.88582 53.108 7.5173 56.9922 10.8487 60.2565C14.1801 63.5209 18.1439 66.0993 22.5072 67.8405C26.87 69.5818 31.5425 70.4505 36.2525 70.3952Z"
    fill="#15A0B0"></path>
</svg>