<svg width="214" height="48" viewBox="0 0 214 48" fill="none" xmlns="http://www.w3.org/2000/svg">
  <path
    d="M26.383 47.9988C33.1746 47.9878 39.6827 45.4403 44.4775 40.9159C44.7702 40.6336 44.9331 40.2542 44.9303 39.8597C44.9278 39.4651 44.76 39.0876 44.4636 38.8086C44.1669 38.5294 43.7658 38.3716 43.3464 38.3692C42.9272 38.3666 42.524 38.5199 42.224 38.7953C38.0211 42.7594 32.317 44.9909 26.3653 44.9998C23.4427 45.0354 20.5418 44.5199 17.8337 43.4835C15.1259 42.4471 12.6657 40.911 10.5985 38.9657C8.53129 37.0204 6.89888 34.7054 5.79751 32.1572C4.69631 29.6089 4.14845 26.8791 4.18631 24.1288C4.20261 18.529 6.57323 13.1637 10.7803 9.20474C14.9874 5.24572 20.689 3.01491 26.6398 2.99951C29.5427 2.96669 32.4238 3.47646 35.1162 4.49926C37.8085 5.52208 40.2585 7.03757 42.3242 8.95788C42.7488 9.38331 42.9801 9.94799 42.9687 10.5315C42.9574 11.115 42.7042 11.6711 42.2631 12.0812C41.8222 12.4914 41.2283 12.7232 40.6082 12.7271C39.9881 12.7311 39.3907 12.5069 38.9436 12.1023C38.9029 12.0642 38.86 12.0281 38.8153 11.9943C35.5911 9.14948 31.3235 7.58729 26.9048 7.63438C22.2767 7.64799 17.8429 9.38365 14.571 12.4626C11.2991 15.5416 9.45471 19.7138 9.44021 24.069C9.41317 26.2154 9.84263 28.3453 10.7033 30.3335C11.564 32.3217 12.8385 34.128 14.4517 35.6461C16.0649 37.1642 17.9845 38.3636 20.0973 39.1735C22.21 39.9833 24.4734 40.3875 26.7544 40.3621C31.3836 40.3541 35.8195 38.6175 39.0877 35.5334C39.6079 35.0528 40.0219 34.4797 40.3055 33.8477C40.5888 33.2155 40.7366 32.5368 40.7397 31.8506C40.7429 31.1643 40.6016 30.4843 40.324 29.8497C40.0463 29.215 39.6379 28.6385 39.1221 28.1531C38.6063 27.6677 37.9936 27.2834 37.3192 27.0221C36.6448 26.7609 35.9222 26.6279 35.1929 26.6309C34.4637 26.6339 33.7424 26.7729 33.0707 27.0395C32.399 27.3064 31.79 27.696 31.2793 28.1855C31.2465 28.2165 31.2177 28.2476 31.1888 28.2797C31.1546 28.307 31.1209 28.3346 31.0887 28.365C30.1973 29.2176 29.0567 29.8017 27.8115 30.0433C26.5666 30.2849 25.2732 30.1728 24.0956 29.7216C22.9181 29.2703 21.9092 28.5 21.1973 27.5087C20.4855 26.5171 20.1024 25.3493 20.097 24.1529C20.0915 22.9565 20.4638 21.7858 21.1666 20.7892C21.8695 19.7925 22.8712 19.0149 24.0446 18.5551C25.2181 18.0951 26.5105 17.9737 27.7577 18.2061C29.0049 18.4385 30.1508 19.0143 31.0499 19.8603C31.1972 20.0023 31.373 20.1154 31.5671 20.1931C31.7612 20.2707 31.9697 20.3113 32.1805 20.3125C32.3913 20.3137 32.6004 20.2757 32.7954 20.2002C32.9904 20.1249 33.1676 20.0139 33.3167 19.8736C33.4657 19.7334 33.5837 19.5666 33.6637 19.3831C33.7439 19.1996 33.7843 19.0028 33.783 18.8044C33.7817 18.6061 33.7386 18.4099 33.6561 18.2272C33.5736 18.0446 33.4535 17.8792 33.3025 17.7406C31.9608 16.4919 30.2562 15.645 28.4039 15.3067C26.5515 14.9684 24.6344 15.154 22.8945 15.8399C21.1545 16.5259 19.6696 17.6815 18.6271 19.161C17.5847 20.6405 17.0314 22.3775 17.037 24.153C17.0426 25.9284 17.6069 27.6627 18.6587 29.1372C19.7105 30.6114 21.2028 31.7599 22.947 32.4373C24.6912 33.1148 26.6094 33.2912 28.4596 32.9439C30.3098 32.5966 32.009 31.7413 33.3428 30.4861C33.3757 30.4552 33.4044 30.4241 33.4334 30.3919C33.4676 30.3647 33.5013 30.337 33.5335 30.3067C33.7485 30.0961 34.006 29.928 34.2912 29.8121C34.5761 29.6963 34.883 29.6353 35.1932 29.6324C35.5038 29.6295 35.8119 29.6849 36.0992 29.7955C36.3866 29.906 36.648 30.0695 36.8675 30.276C37.087 30.4826 37.2607 30.7285 37.3782 30.9989C37.4956 31.2694 37.5545 31.5593 37.5514 31.8515C37.5484 32.1434 37.4835 32.4323 37.3604 32.7003C37.2374 32.9687 37.0587 33.2111 36.8348 33.4134C34.1583 35.9376 30.5263 37.3585 26.7364 37.364C24.8769 37.3873 23.0313 37.0596 21.3083 36.4006C19.5853 35.7416 18.0201 34.7642 16.7048 33.5265C15.3897 32.289 14.3512 30.8161 13.6508 29.1947C12.9505 27.5733 12.6023 25.8366 12.627 24.0867C12.637 20.5211 14.1464 17.1047 16.8252 14.5838C19.504 12.063 23.1345 10.6427 26.9237 10.6332C28.7827 10.6118 30.6276 10.9401 32.3501 11.599C34.0727 12.2578 35.638 13.2339 36.9544 14.4699C37.0558 14.5648 37.1703 14.6464 37.295 14.7126C38.4014 15.4769 39.7682 15.8298 41.1338 15.7041C42.4993 15.5783 43.7672 14.9824 44.6942 14.0309C45.6212 13.0793 46.142 11.8389 46.1568 10.5478C46.1716 9.2567 45.6794 8.0058 44.7744 7.03495C44.7384 6.99274 44.6999 6.95225 44.6592 6.91379C44.6365 6.89244 44.6139 6.87124 44.5913 6.84989C44.5801 6.83937 44.5692 6.82916 44.5584 6.81894C44.5475 6.80873 44.535 6.79945 44.5238 6.78954C42.163 4.60259 39.3656 2.87685 36.2931 1.71183C33.2205 0.546791 29.9335 -0.034447 26.6216 0.00157768C19.8319 0.0211845 13.3272 2.56734 8.52707 7.08443C3.72701 11.6014 1.02137 17.7224 1.0005 24.1117C0.96033 27.2585 1.58941 30.3815 2.85109 33.2965C4.11262 36.2116 5.98097 38.86 8.34624 41.0858C10.7115 43.3116 13.5258 45.0696 16.6238 46.2569C19.7214 47.4442 23.04 48.0361 26.3841 47.9983L26.383 47.9988Z"
    fill="white" />
  <path
    d="M58.5283 37.569C56.2285 37.569 54.1827 37.116 52.391 36.2101C50.626 35.3041 49.2221 34.071 48.1791 32.5108C47.1629 30.9254 46.6548 29.1261 46.6548 27.1129C46.6548 25.0746 47.1629 23.2753 48.1791 21.715C49.2221 20.1296 50.626 18.8966 52.391 18.0158C54.1827 17.1098 56.2285 16.6569 58.5283 16.6569C60.8014 16.6569 62.8338 17.1098 64.6255 18.0158C66.4172 18.8966 67.8212 20.1171 68.8374 21.6773C69.8536 23.2375 70.3617 25.0494 70.3617 27.1129C70.3617 29.1261 69.8536 30.9254 68.8374 32.5108C67.8212 34.071 66.4172 35.3041 64.6255 36.2101C62.8338 37.116 60.8014 37.569 58.5283 37.569ZM58.5283 32.7373C59.5713 32.7373 60.5072 32.5108 61.3362 32.0578C62.1652 31.6049 62.8204 30.9632 63.3018 30.1327C63.7831 29.2771 64.0238 28.2705 64.0238 27.1129C64.0238 25.9302 63.7831 24.9236 63.3018 24.0931C62.8204 23.2627 62.1652 22.621 61.3362 22.168C60.5072 21.715 59.5713 21.4885 58.5283 21.4885C57.4854 21.4885 56.5494 21.715 55.7204 22.168C54.8914 22.621 54.2228 23.2627 53.7147 24.0931C53.2334 24.9236 52.9927 25.9302 52.9927 27.1129C52.9927 28.2705 53.2334 29.2771 53.7147 30.1327C54.2228 30.9632 54.8914 31.6049 55.7204 32.0578C56.5494 32.5108 57.4854 32.7373 58.5283 32.7373Z"
    fill="white" />
  <path
    d="M87.6614 16.6569C89.3729 16.6569 90.8972 16.984 92.2343 17.6383C93.5982 18.2674 94.6678 19.2489 95.4434 20.5826C96.2189 21.8912 96.6066 23.5772 96.6066 25.6408V37.267H90.349V26.5467C90.349 24.911 89.9612 23.7031 89.1857 22.9229C88.4369 22.1428 87.3673 21.7528 85.9767 21.7528C84.9872 21.7528 84.0913 21.9541 83.2891 22.3567C82.5136 22.7342 81.8985 23.3256 81.4439 24.1309C81.016 24.9361 80.8021 25.9679 80.8021 27.2262V37.267H74.5444V16.9588H80.5213V22.5832L79.3981 20.8846C80.1736 19.5257 81.2834 18.4813 82.7275 17.7515C84.1716 17.0218 85.8162 16.6569 87.6614 16.6569Z"
    fill="white" />
  <path
    d="M111.104 37.569C108.563 37.569 106.584 36.965 105.167 35.7571C103.75 34.524 103.041 32.6995 103.041 30.2837V12.4669H109.299V30.2082C109.299 31.0638 109.539 31.7307 110.021 32.2088C110.502 32.6618 111.157 32.8883 111.986 32.8883C112.976 32.8883 113.818 32.6366 114.513 32.1333L116.198 36.2855C115.556 36.7134 114.781 37.0405 113.872 37.267C112.989 37.4683 112.066 37.569 111.104 37.569ZM99.7117 21.9415V17.4118H114.674V21.9415H99.7117Z"
    fill="white" />
  <path
    d="M119.711 37.267V16.9588H125.688V22.6965L124.845 21.0356C125.487 19.6012 126.517 18.5191 127.934 17.7893C129.351 17.0343 131.076 16.6569 133.109 16.6569V22.0925C132.841 22.0673 132.601 22.0548 132.387 22.0548C132.173 22.0296 131.945 22.017 131.705 22.017C129.993 22.017 128.603 22.4826 127.533 23.4137C126.49 24.3196 125.969 25.7414 125.969 27.6791V37.267H119.711Z"
    fill="white" />
  <path
    d="M148.657 37.267V33.3035L148.255 32.4353V25.3388C148.255 24.0805 147.841 23.0991 147.012 22.3945C146.21 21.6899 144.966 21.3376 143.281 21.3376C142.132 21.3376 140.995 21.5137 139.872 21.866C138.775 22.1932 137.839 22.6461 137.064 23.2249L134.818 19.1105C135.994 18.3303 137.412 17.7264 139.07 17.2986C140.728 16.8708 142.412 16.6569 144.124 16.6569C147.413 16.6569 149.967 17.3867 151.785 18.8462C153.604 20.3058 154.513 22.5832 154.513 25.6785V37.267H148.657ZM142.078 37.569C140.393 37.569 138.949 37.3047 137.746 36.7763C136.542 36.2226 135.62 35.4803 134.978 34.5492C134.336 33.6181 134.015 32.5737 134.015 31.4161C134.015 30.2082 134.323 29.1513 134.938 28.2453C135.58 27.3394 136.583 26.6348 137.946 26.1315C139.31 25.603 141.089 25.3388 143.281 25.3388H149.018V28.7738H143.963C142.493 28.7738 141.476 29.0003 140.915 29.4533C140.38 29.9062 140.112 30.4724 140.112 31.1519C140.112 31.9068 140.42 32.5108 141.035 32.9638C141.677 33.3916 142.546 33.6055 143.642 33.6055C144.685 33.6055 145.621 33.379 146.45 32.926C147.279 32.4479 147.881 31.7559 148.255 30.8499L149.218 33.5677C148.764 34.8763 147.935 35.8703 146.731 36.5498C145.528 37.2292 143.977 37.569 142.078 37.569Z"
    fill="white" />
  <path
    d="M169.001 37.569C166.461 37.569 164.482 36.965 163.065 35.7571C161.647 34.524 160.939 32.6995 160.939 30.2837V12.4669H167.196V30.2082C167.196 31.0638 167.437 31.7307 167.918 32.2088C168.4 32.6618 169.055 32.8883 169.884 32.8883C170.873 32.8883 171.716 32.6366 172.411 32.1333L174.096 36.2855C173.454 36.7134 172.679 37.0405 171.769 37.267C170.887 37.4683 169.964 37.569 169.001 37.569ZM157.609 21.9415V17.4118H172.572V21.9415H157.609Z"
    fill="white" />
  <path
    d="M190.846 37.267V33.3035L190.445 32.4353V25.3388C190.445 24.0805 190.03 23.0991 189.201 22.3945C188.399 21.6899 187.155 21.3376 185.471 21.3376C184.321 21.3376 183.184 21.5137 182.061 21.866C180.965 22.1932 180.029 22.6461 179.253 23.2249L177.007 19.1105C178.184 18.3303 179.601 17.7264 181.259 17.2986C182.917 16.8708 184.602 16.6569 186.313 16.6569C189.602 16.6569 192.156 17.3867 193.975 18.8462C195.793 20.3058 196.702 22.5832 196.702 25.6785V37.267H190.846ZM184.267 37.569C182.583 37.569 181.138 37.3047 179.935 36.7763C178.732 36.2226 177.809 35.4803 177.167 34.5492C176.525 33.6181 176.205 32.5737 176.205 31.4161C176.205 30.2082 176.512 29.1513 177.127 28.2453C177.769 27.3394 178.772 26.6348 180.136 26.1315C181.5 25.603 183.278 25.3388 185.471 25.3388H191.207V28.7738H186.153C184.682 28.7738 183.666 29.0003 183.104 29.4533C182.569 29.9062 182.302 30.4724 182.302 31.1519C182.302 31.9068 182.609 32.5108 183.224 32.9638C183.866 33.3916 184.735 33.6055 185.832 33.6055C186.875 33.6055 187.811 33.379 188.64 32.926C189.469 32.4479 190.07 31.7559 190.445 30.8499L191.407 33.5677C190.953 34.8763 190.124 35.8703 188.92 36.5498C187.717 37.2292 186.166 37.569 184.267 37.569Z"
    fill="white" />
  <path
    d="M202.366 37.267V16.9588H208.624V37.267H202.366ZM201.844 14.3543L207.26 8.91864H213.999L206.738 14.3543H201.844Z"
    fill="white" />
</svg>