<svg xmlns="http://www.w3.org/2000/svg" viewBox="0 0 500 500"><g id="freepik--background-complete--inject-26"><path d="M51.56,127.86c4.37,0,113.48-.76,144.3-.76,2.15,0-.57-3.73-1.76-4-3.79-.83-7.74-.87-11.59-1.27a37.94,37.94,0,0,1-11-2.77c-3-1.28-6.06-2.76-9.34-3.27-6.35-1-11.92,2.44-17.88,4a13.44,13.44,0,0,1-10.82-1.48c-2.76-1.65-5.26-3.63-8.14-5.09a44.61,44.61,0,0,0-35.65-1.63,42.5,42.5,0,0,0-7.8,4c-2.91,1.91-5.41,4.35-8.33,6.23C67.05,126,59.06,124.61,52,127,51.62,127.13,51.19,127.86,51.56,127.86Z" style="fill:#ebebeb"></path><path d="M358.49,48c5.84,0,104.13.65,110.31.45.44,0,.68-.66.24-.88-3.9-1.93-8.31-1.54-12.36-2.91-2.38-.8-3.84-2.36-5.5-4.14a11.3,11.3,0,0,0-5.11-3.34A10.74,10.74,0,0,0,440.5,37c-2,.47-3.72,1.61-5.63,2.33-4.72,1.78-9.31.09-12.68-3.4-2.78-2.88-5.51-5.6-9.29-7.15a12.36,12.36,0,0,0-9.85-.14c-3.6,1.64-6.08,4.92-9.46,6.9-4,2.34-8.82,1.79-13.25,2.5s-7.84,4.44-11.73,6.59a8.35,8.35,0,0,1-4.24,1.31c-.87,0-1.72-.26-2.58-.36-1.34-.17-2.61-.13-3.51,1C358.06,46.84,358.1,48,358.49,48Z" style="fill:#ebebeb"></path><path d="M35.16,73.44c5.1,0,90.81.56,96.2.39.38,0,.59-.58.21-.77-3.4-1.68-7.25-1.34-10.78-2.53-2.08-.7-3.35-2.06-4.79-3.62A10.09,10.09,0,0,0,111.54,64a9.43,9.43,0,0,0-4.86-.15,40.34,40.34,0,0,0-4.91,2c-4.12,1.55-8.12.07-11.06-3-2.42-2.51-4.8-4.88-8.1-6.24A10.78,10.78,0,0,0,74,56.57c-3.14,1.42-5.3,4.28-8.25,6-3.5,2-7.69,1.56-11.55,2.18S47.38,68.63,44,70.51a7.31,7.31,0,0,1-3.7,1.14A21.37,21.37,0,0,1,38,71.33,3.08,3.08,0,0,0,35,72.2C34.79,72.43,34.83,73.44,35.16,73.44Z" style="fill:#ebebeb"></path><path d="M368.53,359.59c5.09,0,90.8.57,96.19.4.39,0,.59-.58.21-.77-3.4-1.69-7.25-1.35-10.78-2.54-2.07-.7-3.35-2.06-4.79-3.61a9.87,9.87,0,0,0-4.46-2.91,9.5,9.5,0,0,0-4.85-.16,42,42,0,0,0-4.91,2c-4.12,1.56-8.12.08-11.06-3-2.43-2.51-4.81-4.88-8.11-6.23a10.76,10.76,0,0,0-8.58-.12c-3.15,1.42-5.3,4.29-8.26,6-3.5,2-7.68,1.56-11.55,2.18s-6.84,3.88-10.23,5.75a7.15,7.15,0,0,1-3.69,1.14,21.34,21.34,0,0,1-2.25-.31,3.09,3.09,0,0,0-3.07.86C368.15,358.59,368.19,359.59,368.53,359.59Z" style="fill:#ebebeb"></path><path d="M40.17,270.14c.07.22,102.9,0,101.61,0-.6,0,.89-.89.32-1.17-3.35-1.66-7-1.71-10.66-2a16.62,16.62,0,0,1-6.22-1.51c-1.94-1-3.15-2.78-4.53-4.41a19.3,19.3,0,0,0-17.56-6.65c-7.31,1.14-13.07,6.71-20.4,7.74-4.4.61-8.56-1.09-12.86-1.69a15.71,15.71,0,0,0-9.65,1.77,18.43,18.43,0,0,1-7.09,2.3c-2,.14-4-.09-6.05-.11a13.57,13.57,0,0,0-8.91,3.56C37.85,268.22,36.81,270.14,40.17,270.14Z" style="fill:#ebebeb"></path><path d="M402.78,358.23a28.27,28.27,0,0,0-.86,12.3c1.29,8.62,7.78,15.44,9.18,23.93-.17,1-.39,2-.66,3.07a.43.43,0,0,1,0,.05s0,0,0,0h0v0a.12.12,0,0,0,.08.09,3.73,3.73,0,0,0,.16-.35c.11-.21.2-.42.29-.64s.25-.6.36-.91c0,0,.07-.14.07-.18,3.17-8.72.26-18.39-1.21-27.23-.85-5.06-.49-10.16-1.24-15.2-.19-1.2-.18-3.48-1.91-3C405.08,350.72,403.27,356.61,402.78,358.23Z" style="fill:#ebebeb"></path><path d="M404.05,365.66c-.54,10.49,9.13,19.66,6.88,30.13-.07.29-.14.58-.22.88l-.18.6h0l-.09.25a.43.43,0,0,1,0,.05s0,0,0,0h0v0a.12.12,0,0,0,.08.09h0a.08.08,0,0,0,.08-.06c.13-.31.23-.63.33-.94a13.86,13.86,0,0,0,.53-2.32h0a33.45,33.45,0,0,0-.2-14c-1.2-5.95-2.72-11.72-3.81-17.73-.13-.74-.13-3.67-1.33-3.28C404.63,359.85,404.12,364.45,404.05,365.66Zm.52-1.56c.09-.59.85-4.53,1.83-4.11.59.24.66,3.22.75,3.64.35,1.63.69,3.24,1,4.86.75,3.41,1.51,6.81,2.25,10.22a44.62,44.62,0,0,1,1.16,12.6C411.07,382.13,403,373.62,404.57,364.1Z" style="fill:#fff"></path><path d="M400.27,458.89c0,.13.11.32.3.21,7.94-5.12,17.85-1,26.07-5.52a42,42,0,0,0,8.83-7.05,33.53,33.53,0,0,0,5.38-6.4c.19-.32,1.2-1.62,1-2.26-1.26-4.9-14,3.38-16.11,4.55-8.32,4.54-15.93,8.68-23.22,14.5-.76.6-1.52,1.22-2.27,1.86A.12.12,0,0,0,400.27,458.89Z" style="fill:#ebebeb"></path><path d="M400.27,458.89l.86-.55c5.47-2.62,11.54-3.54,17.41-5A32.74,32.74,0,0,0,433.93,445c.78-.76,4-3.67,3.05-5.13s-4.1,1.22-4.89,1.67c-5.91,3.31-11.69,6.67-17.85,9.52-3.94,1.83-7.93,3.64-11.68,5.85-.76.6-1.52,1.22-2.27,1.86A.12.12,0,0,0,400.27,458.89Zm3.71-2.22c4.34-2.43,8.9-4.45,13.43-6.6,3.11-1.47,6.14-3.06,9.12-4.78,1.62-1,3.24-1.92,4.88-2.85.83-.47,1.65-.93,2.48-1.37.41-.23,1.77-1,2.12-.38.93,1.7-8.19,10.36-19.5,12.6A70.2,70.2,0,0,0,404,456.67Z" style="fill:#fff"></path><path d="M413.48,443.84a.08.08,0,0,0,0,.11.08.08,0,0,0,.12,0l.49-.49c.61-.59,1.19-1.19,1.75-1.8l.31-.33a.19.19,0,0,0,.09,0c6.35-6.49,16-8.47,21.37-16a36.31,36.31,0,0,0,5.09-11.16c.5-1.71,2.94-6.89.8-8.24-1.67-1-4.27,1.22-5.36,2.19-3.46,3.07-5.91,7.36-8.31,11.25s-4.51,7.73-6.75,11.6a75,75,0,0,1-7.1,9.92C415.17,441.85,414.33,442.85,413.48,443.84Z" style="fill:#ebebeb"></path><path d="M413.48,443.84a.08.08,0,0,0,0,.11c.52-.54,1-1.09,1.57-1.62l-1,1.13c.61-.59,1.19-1.19,1.75-1.8l.84-1a102.5,102.5,0,0,1,11.7-9.69,21.46,21.46,0,0,0,5.27-5.23c2.66-3.81,6.78-12.78,6-14.14s-2.46,1.51-2.92,2.13c-3.69,5-6.69,10.51-10.66,15.36-2.67,3.25-5.38,6.48-8.09,9.72-.68.66-1.35,1.33-2,2C415.17,441.85,414.33,442.85,413.48,443.84ZM439,412c.7.29-.36,2.7-.64,3.34a100.4,100.4,0,0,1-4.46,9.08c-1.75,3.1-4.25,5.14-7.12,7.16A74.47,74.47,0,0,0,420,437c2.69-3,5.34-6.11,7.83-9.3,2-2.65,3.84-5.49,5.66-8.3.91-1.41,1.82-2.81,2.78-4.18.26-.38,2.18-3.51,2.81-3.25" style="fill:#fff"></path><path d="M366.19,483.88a.07.07,0,0,0,.07.07.07.07,0,0,0,.08-.06l.12-.61c.14-.74.27-1.47.38-2.21,0-.13,0-.26.06-.4a.18.18,0,0,0,.05-.07c1.39-8,7.47-14.28,7.66-22.54a32.52,32.52,0,0,0-1.88-10.78c-.49-1.51-1.31-6.56-3.57-6.47-1.75.07-2.52,3.06-2.84,4.32-1,4-.63,8.39-.44,12.47s.58,8,.87,11.94a65.78,65.78,0,0,1-.22,10.88C366.43,481.56,366.32,482.72,366.19,483.88Z" style="fill:#ebebeb"></path><path d="M366.19,483.88a.07.07,0,0,0,.07.07c.1-.66.21-1.33.33-2,0,.44-.09.88-.13,1.31.14-.74.27-1.47.38-2.21,0-.37.08-.75.13-1.13a91.25,91.25,0,0,1,3.72-13,19.24,19.24,0,0,0,1.24-6.51c0-4.14-1.45-12.82-2.72-13.42s-1,2.35-1.07,3c-.18,5.57.37,11.1-.11,16.67-.32,3.75-.69,7.49-1,11.23-.16.83-.32,1.66-.45,2.5C366.43,481.56,366.32,482.72,366.19,483.88Zm1.32-8.32c.44-3.59.85-7.19,1.07-10.78.17-3,.06-6,0-9,0-1.49-.08-3-.06-4.48,0-.4-.16-3.68.43-3.8s1.09,2.17,1.21,2.77c.55,2.94,1,6,1.3,8.94a19.69,19.69,0,0,1-1.63,8.85A65.38,65.38,0,0,0,367.51,475.56Z" style="fill:#fff"></path><path d="M365.27,490.49a1.12,1.12,0,0,0,.62-.21c8.12-3.11,17-3.25,25.17-6.36a23.65,23.65,0,0,0,9.49-6.25c1.09-1.23,4.86-5.49,4-7.46-2.49-5.94-29.9,12.77-38.91,19.49a1.69,1.69,0,0,0-.42.29C365,490.24,365,490.47,365.27,490.49Z" style="fill:#ebebeb"></path><path d="M365.27,490.49c.61-.33,1.21-.67,1.82-1,2-.8,4-1.55,6-2.19,3.22-1,6.53-1.62,9.8-2.44a31.17,31.17,0,0,0,13.7-7.32c.84-.77,3.34-2.83,2.8-4.28s-2.55,0-3.27.32c-10.31,4.92-20.34,10.57-30.33,16.13-.18.09-.36.17-.53.27S365,490.47,365.27,490.49Zm4.79-2.62q5.87-3.19,11.75-6.34c3.08-1.64,6.15-3.27,9.24-4.89,1.53-.8,3-1.62,4.59-2.39.6-.3,2.95-1.5,3.17-.65s-1.4,2.43-1.69,2.73c-4.64,4.76-10.58,7.21-16.94,8.63A74.21,74.21,0,0,0,370.06,487.87Z" style="fill:#fff"></path><path d="M404.19,421.86a.35.35,0,0,0,0,.31.41.41,0,0,0,.36.25.45.45,0,0,0,.23,0,.19.19,0,0,0,.14,0c3.84-3.75,9.69-7.24,13.64-10.85a41.35,41.35,0,0,0,7.61-9.59,56.65,56.65,0,0,0,5.61-12.48c.62-2.08,2.41-7,.72-9C429,376.18,422,391.49,421,393.2,415.35,402.73,409.72,412.26,404.19,421.86Z" style="fill:#ebebeb"></path><path d="M404.15,422.17a.41.41,0,0,0,.36.25l.67-1c1.5-1.77,3-3.53,4.61-5.21,2.6-2.74,5.57-5.11,8.09-7.93,4.37-4.92,12.58-20.59,10.22-22.15-1.23-.81-2.75,2.41-3.2,3.17-1.76,3-3.14,6.24-4.94,9.24-1.89,3.15-4,6.19-6,9.23-3.19,4.67-6.39,9.33-9.52,14C404.33,422,404.25,422.06,404.15,422.17Zm3.15-3.8q4.24-6.19,8.43-12.43c1.94-2.87,3.85-5.76,5.57-8.77,1-1.68,1.83-3.41,2.69-5.15.42-.84.84-1.69,1.33-2.5s1.94-3.63,2.63-2.56-1.38,5.66-1.87,6.74c-.8,1.74-1.62,3.47-2.51,5.17a44.72,44.72,0,0,1-6.3,9.41c-2.53,2.8-5.5,5.17-8.06,8C408.57,416.94,407.93,417.65,407.3,418.37Z" style="fill:#fff"></path><path d="M358.2,429.48c7.06,7.67,18.44,9.8,22.6,23.24,0,0,.07,0,.1,0a0,0,0,0,0,0-.05c-.26-1.36-.56-2.7-.93-4.05a58.59,58.59,0,0,0-9.75-20.14,44.19,44.19,0,0,0-9.53-9.34c-1.86-1.31-5.88-4.67-8.2-4.15C347.5,416.13,356.92,428.09,358.2,429.48Z" style="fill:#ebebeb"></path><path d="M358.62,424.76c2.85,5.58,8.48,9.19,12.8,13.53a50.75,50.75,0,0,1,7.8,9.87c.59,1.51,1.14,3,1.68,4.58a0,0,0,0,0,0-.05c-.26-1.36-.56-2.7-.93-4.05a2.25,2.25,0,0,0-.12-.21A62.38,62.38,0,0,0,374,436.7a64.59,64.59,0,0,0-11.63-13.79c-.78-.7-3.34-3.74-4.67-3S358.23,424,358.62,424.76Zm-.47-4.32c1-.37,5.5,4.13,7.27,6a64.84,64.84,0,0,1,9.83,13.17,62.9,62.9,0,0,1,3.1,6.41,51.29,51.29,0,0,0-5.11-6.39c-3.89-4.17-8.75-7.5-12.28-12a18.14,18.14,0,0,1-2.34-3.81C358.38,423.26,357.26,420.77,358.15,420.44Z" style="fill:#fff"></path><path d="M367,387.65a47.82,47.82,0,0,0-.07,11.28,47,47,0,0,0,7.37,20.34c.07.1.14.22.22.33.06.35.13.71.22,1.07,0,.08,0,.15.05.24l0,0h0a.09.09,0,0,0,.16-.07c0-.44,0-.88,0-1.33.14-9.08,1.82-18,.6-27.06-.27-2-1.56-15-6.1-12.77C367.32,380.77,367.18,385.75,367,387.65Z" style="fill:#ebebeb"></path><path d="M368.77,389.47c-.32,5.6,1.15,11.61,2.3,17.06a129.57,129.57,0,0,0,3.18,12.74c.1.34.22.68.33,1,0,.12.07.25.11.38a1.74,1.74,0,0,0,.07.29h0a.09.09,0,0,0,.16-.07c0-.44,0-.88,0-1.33s-.19-.66-.27-1a105.76,105.76,0,0,1-.56-14.91c0-2.71,0-5.4-.26-8.09a36.56,36.56,0,0,0-1.15-7.87c-.36-1.09-1.09-3.23-2.61-2.44C368.8,385.92,368.84,388.29,368.77,389.47Zm3.33-1.89a39.69,39.69,0,0,1,1.31,9.48c.21,2.94.18,5.9.15,8.85a92.83,92.83,0,0,0,.22,9.43c-1.07-3.93-2.11-7.88-2.88-11.92-.6-3.16-1.13-6.34-1.49-9.53a24.2,24.2,0,0,1-.17-5,14.18,14.18,0,0,1,.24-1.75C369.88,385.35,371.67,386.25,372.1,387.58Z" style="fill:#fff"></path><path d="M422.72,364.06l-.09.43a.26.26,0,0,0,.34.3.25.25,0,0,0,.19-.21c.06-.26.13-.53.19-.79h0l.15-.64a10.91,10.91,0,0,1,.63-1c2.41-3.65,6.58-6.73,9.41-9.84a56.67,56.67,0,0,0,7-9.09,28.18,28.18,0,0,0,4-10.84c.13-1,.63-3.67-.68-4.32-1.64-.83-4.15,2.32-5,3.14a47.41,47.41,0,0,0-7.86,9.76C426.61,348.09,424.35,355.9,422.72,364.06Z" style="fill:#ebebeb"></path><path d="M423.45,362.25a15.56,15.56,0,0,0-.73,1.81l-.09.43a.26.26,0,0,0,.34.3,2.81,2.81,0,0,1,.1-.31c.09-.23.18-.46.28-.69h0c.24-.57.5-1.12.78-1.67a37.23,37.23,0,0,1,3.53-5.62c2.31-3.08,4.74-6.08,6.94-9.25,1.1-1.59,9.56-13.84,6.23-15-.62-.23-1.23.62-1.57,1a26.37,26.37,0,0,0-3,4.1c-2.12,3.32-4.12,6.73-6,10.19A109.81,109.81,0,0,0,423.45,362.25Zm6.06-12.65c1.61-3.06,3.33-6.07,5.12-9,.87-1.44,1.74-2.9,2.69-4.29.47-.69,2.85-3.8,3.5-3.39,1,.6-1.31,5.44-2,6.74-.79,1.48-1.65,2.93-2.54,4.35-1.81,2.86-3.81,5.6-5.86,8.28-1.82,2.39-4,4.91-5.68,7.65A109.28,109.28,0,0,1,429.51,349.6Z" style="fill:#fff"></path><path d="M393.63,406.66c.05.15.1.28.14.42a.27.27,0,0,0,.45.09.24.24,0,0,0,.06-.27l-.24-.78h0c-.06-.21-.12-.41-.19-.62,0-.4,0-.81,0-1.21.25-4.36,2.32-9.12,3.21-13.23a58.07,58.07,0,0,0,1.49-11.37,28.46,28.46,0,0,0-1.93-11.41c-.42-1-1.31-3.49-2.76-3.41-1.84.11-2.43,4.1-2.79,5.26a47.54,47.54,0,0,0-1.9,12.38C389,390.9,391,398.79,393.63,406.66Z" style="fill:#ebebeb"></path><path d="M393.36,404.73a17.24,17.24,0,0,0,.27,1.93c.05.15.1.28.14.42a.27.27,0,0,0,.45.09,1.73,1.73,0,0,1-.07-.31c0-.25-.07-.49-.11-.74h0c-.07-.61-.12-1.21-.16-1.83a37.24,37.24,0,0,1,.24-6.63c.45-3.83,1-7.64,1.35-11.49.15-1.92,1.33-16.76-2.14-16.1-.65.11-.75,1.15-.87,1.61a25.51,25.51,0,0,0-.57,5.08c-.17,3.93-.19,7.88-.09,11.82A108,108,0,0,0,393.36,404.73Zm-1.11-14c-.14-3.47-.16-6.92-.1-10.38,0-1.69.05-3.38.17-5.07.06-.83.56-4.71,1.33-4.69,1.13,0,1.6,5.36,1.65,6.83.06,1.69.05,3.37,0,5.05-.13,3.38-.49,6.75-.92,10.1-.37,3-1,6.24-1.07,9.47A112.91,112.91,0,0,1,392.25,390.76Z" style="fill:#fff"></path><path d="M373.81,412.76a210.32,210.32,0,0,0,4.79,23.31c1.61,5.94,3.23,12,3.46,18.16a46.32,46.32,0,0,1-5.62,22.68q3.26-3.63,6.44-7.37c4.32-5.07,8.62-10.28,11.69-16.23.3-.59.58-1.18.85-1.78a.24.24,0,0,1,0-.15,80,80,0,0,0,1.55-23.93,66.06,66.06,0,0,0-5.21-12,53.7,53.7,0,0,1-5.4-12.15c-.06-.25.29-.4.39-.15,2.2,5.79,6.75,11.43,9.42,17.43-.16-1-.32-2-.5-3-1.74-9.51-5-19.06-1.55-28.56.12-.32.57-.1.47.21-3.28,10.58,1.88,22.24,3.41,32.76,1.13,7.82,1.51,16.25-.38,24a126.58,126.58,0,0,0,3.48-13.15c6-26.67,12.9-53.2,25.87-77.44.13-.24.51-.07.38.17-13.27,26.31-18.53,54.9-25.45,83.25l-.24,1A53.87,53.87,0,0,1,410,429.8a.17.17,0,0,1,.27.22c-3.81,4.87-6.71,10.2-10.14,15.29a55.22,55.22,0,0,1-5,11.41,89.76,89.76,0,0,1-8.82,12.08c5.41-4.55,10.88-9,16-14A243.13,243.13,0,0,0,423.94,431c.09-.13.27,0,.18.15a202,202,0,0,1-21.55,25.71c-6.74,6.7-14,13.54-22.05,18.68-7.73,8.9-16,17.85-25.79,24.37a.43.43,0,0,1-.49-.7c1.79-1.59,3.55-3.22,5.28-4.85,1.69-3.78,4-7.23,5.53-11.14A62,62,0,0,0,368.64,469c0-.36.56-.26.54.08-.4,6.65-1.89,14.82-5.44,21.16q3.7-3.67,7.28-7.46c6.35-9.7,10.49-21.23,9.1-32.84-.71-6-2.42-11.73-3.82-17.55a129.91,129.91,0,0,1-2.93-19.62A.22.22,0,0,1,373.81,412.76Z" style="fill:#ebebeb"></path><path d="M122,380.51c2.07,3.44,2.7,8.06,3.29,12A96.66,96.66,0,0,1,126.29,406c.06,4.21-.08,8.41-.3,12.6v.12c0,.28,0,.55,0,.82s0,.67,0,1a.18.18,0,0,1-.13.2.16.16,0,0,1-.24-.14l-.06-.54c-.82-7.63-6.49-13.62-8.21-21-.94-4-.77-8.32-.79-12.44,0-2.28-.47-5.16,0-7.39.12-.6.06-1.2.61-1.61C118.88,376.32,121.23,379.3,122,380.51Z" style="fill:#ebebeb"></path><path d="M120.72,383.63c-1.37-.73-1.53,2.09-1.62,2.87-.57,5.25-.27,11.32,1.62,16.26,2.06,5.45,4.19,10.88,4.9,16.67l-.06.59.06.54a.16.16,0,0,0,.24.14c0-.12,0-.23,0-.34.06-.57.11-1.13.14-1.69v-.12a110.3,110.3,0,0,0-.32-12.07,77.67,77.67,0,0,0-2.37-16.7A40,40,0,0,0,122,385.9C121.77,385.26,121.39,384,120.72,383.63Zm1.32,3.21a41.64,41.64,0,0,1,1.25,4.12,78.1,78.1,0,0,1,2,14.69,107.79,107.79,0,0,1,.38,12.85,45,45,0,0,0-2.32-9.66c-.82-2.37-1.8-4.67-2.64-7a27.62,27.62,0,0,1-1.32-8.23,35.37,35.37,0,0,1,.15-7.9c.1-.52.44-1.7.87-1.71C121.18,384,121.85,386.31,122,386.84Z" style="fill:#fff"></path><path d="M99.54,444.37s0,0,0,0" style="fill:#ebebeb"></path><path d="M139.73,490.25a.19.19,0,0,1,.13.21h0a.19.19,0,0,1-.12.17.22.22,0,0,1-.16,0c-5-1.41-10.15-4.24-15.52-3.47-4.2.6-7.67,1.82-12,.89a31.84,31.84,0,0,1-12-5.5,32.94,32.94,0,0,1-4.54-4.05c-.66-.71-2.7-2.42-2.67-3.51.11-5.08,16.28.75,18.43,1.54,9.53,3.5,19.33,7.62,27.81,13.26a.08.08,0,0,1,0,.07.13.13,0,0,1,0,.1C139.3,490.06,139.52,490.15,139.73,490.25Z" style="fill:#ebebeb"></path><path d="M139.73,490.25c-.21-.1-.43-.19-.64-.27a.13.13,0,0,0,0-.1c-5.41-2.64-11-4.9-16.65-7A149.09,149.09,0,0,0,104,476.76c-.86-.21-4.53-1.53-5-.12s3.55,3.66,4.41,4.17c5,3,11,3.65,16.71,4.17,3.72.35,7.36.65,10.89,2,3,1.11,5.79,2.55,8.74,3.68a.19.19,0,0,0,.12-.17c-1.51-.59-3-1.28-4.47-2l4.47,1.94A.19.19,0,0,0,139.73,490.25Zm-13.28-4.91c-5.67-1-11.49-.81-17.07-2.41a22.79,22.79,0,0,1-7.51-3.57c-.43-.32-2.48-1.7-2.23-2.46.17-.51,1.62-.36,1.84-.32a43.14,43.14,0,0,1,4.76,1.09c5.45,1.55,10.82,3.47,16.13,5.47,2.94,1.11,5.84,2.3,8.73,3.54A25.31,25.31,0,0,0,126.45,485.34Z" style="fill:#fff"></path><path d="M99,393.45c1.44,4.29,1.45,9.05,1.09,13.52-.86,10.33-4.44,20.48-4.16,30.91,0,.41,0,.82,0,1.23.2.5.1.39-.19-.19,0,0,0,0,0,0-1.27-2.53-6.15-13.87-6.65-22.59-.31-5.45.53-10.81,1.38-16.17.49-3.06,1-6.12,1.46-9.17.17-1,.14-3.68,1.48-4.15C96,385.91,98.41,391.77,99,393.45Z" style="fill:#ebebeb"></path><path d="M94.52,395.24a.91.91,0,0,0-1.13.55,4.6,4.6,0,0,0-.23,1.84c-.07,1.1-.14,2.18-.2,3.27-.44,7.54-1.5,15.34-.73,22.88a62.62,62.62,0,0,0,3.43,14.66c0,.16.06.32.1.47s0,0,0,0c.29.58.39.69.19.19,0-.41,0-.82,0-1.23s-.2-1.1-.27-1.66a46.15,46.15,0,0,1,.31-11.62,115.11,115.11,0,0,0,.91-22.11,23.1,23.1,0,0,0-.79-4.89C95.83,396.89,95.37,395.48,94.52,395.24Zm1.1,2.19a7.46,7.46,0,0,1,.31,1.05,19.74,19.74,0,0,1,.4,2.3,55.77,55.77,0,0,1,.34,5.63,156.66,156.66,0,0,1-1.29,20,41.51,41.51,0,0,0-.09,9.9,81.72,81.72,0,0,1-2-8.09c-1.35-7-.7-14-.3-21,.11-1.74.21-3.49.31-5.24l.15-2.61L93.5,398c0-.88-.14-1.2.73-1.64C95.32,395.81,95.27,396.49,95.62,397.43Z" style="fill:#fff"></path><path d="M114,433a55.89,55.89,0,0,1,4.65,9.52c2.49,6.65,3,14.79,6.15,21.28.24.41.48.85.69,1.28a4.44,4.44,0,0,1,.24.49c0,.09-.09.16-.15.09-.2-.27-.4-.53-.61-.79h0l-.32-.42c-4.71-6-10.28-11.22-13.2-18.42-1.79-4.42-5.71-16.83-2.87-18.4C109.82,426.93,112.85,431.18,114,433Z" style="fill:#ebebeb"></path><path d="M111.35,434.22c-.65.49-.35,1.9-.28,2.5a30.26,30.26,0,0,0,1.1,4.7,48.33,48.33,0,0,0,3.41,8.29,94.77,94.77,0,0,0,9,14.73l.32.42h0c.21.26.41.52.61.79.06.07.19,0,.15-.09a4.44,4.44,0,0,0-.24-.49c-3.39-5.43-5.54-11.41-7.54-17.51C117.48,446.21,113.62,432.55,111.35,434.22Zm3.38,5.19c.48,1.26.92,2.54,1.35,3.83,1,3,2,6,3,9a71.55,71.55,0,0,0,4,9.51,122.9,122.9,0,0,1-6.39-10.5,63.7,63.7,0,0,1-3.4-7.36,32.29,32.29,0,0,1-1.28-4.2c-.17-.69-1.24-4.6-.48-5.11C112.52,433.93,114.53,438.86,114.73,439.41Z" style="fill:#fff"></path><path d="M140.34,413.75c2.09,1.73,2.1,6,1.62,8.35a20,20,0,0,1-4.78,8.83c-3.2,3.74-7,6.87-9.42,11.19s-1.64,3-2.94,8.1c0,.1-.11.12-.2.06a.93.93,0,0,1-.28-.73.49.49,0,0,1,0-.13c.53-8.1,3.29-14.95,7.35-22,2.3-4,3.25-8.67,5.7-12.57C138.29,413.42,138.91,412.55,140.34,413.75Z" style="fill:#ebebeb"></path><path d="M139.36,418.15c-1.24-.32-2.21,2.27-2.63,3.21a50.1,50.1,0,0,1-4.06,8,58.48,58.48,0,0,0-4.18,6.69,39.22,39.22,0,0,0-3.71,11.44,21.15,21.15,0,0,0-.44,2.1.93.93,0,0,0,.28.73l0-.28a27,27,0,0,1,7-13.88c3.67-4.12,7-8.55,8.35-14C140.21,421.12,140.51,418.44,139.36,418.15Zm.46,3.31a20.78,20.78,0,0,1-.79,2.77,26.63,26.63,0,0,1-2.24,4.7,48.83,48.83,0,0,1-5.65,7.25,29.18,29.18,0,0,0-5.63,9,40.06,40.06,0,0,1,3.64-9.82c1.48-2.76,3.48-5.16,5-7.87.71-1.26,1.3-2.56,1.89-3.87.32-.71.63-1.43.94-2.13s1.13-2.84,2-2.84C140.1,418.62,139.91,421.08,139.82,421.46Z" style="fill:#fff"></path><path d="M65.91,408.17c8.33,6.36,16.26,13.2,23.92,20.33a.27.27,0,0,1,.07.32.08.08,0,0,1,0,.06L90,429a.12.12,0,0,1,0,.17l0,0a0,0,0,0,1,0,0,.2.2,0,0,1-.13,0c-5.07-3.33-9.83-6.44-15.72-8.15-5.39-1.55-10.62-2.7-15.57-5.44-4.23-2.35-17.49-15.44-16.52-19.37C42.68,393.6,59.28,403.12,65.91,408.17Z" style="fill:#ebebeb"></path><path d="M56.46,404.69c-1.05-.68-4.33-3.55-5.85-2.54s1.79,3.91,2.42,4.54a51.1,51.1,0,0,0,7.54,6.3c2.74,1.79,5.76,2.74,8.76,4,7.38,3,14.25,7.52,20.64,12.26a0,0,0,0,0,0,0l0,0a.12.12,0,0,0,0-.17l-.14-.14a.08.08,0,0,0,0-.06C79.57,419.74,68,412.17,56.46,404.69ZM89.25,428.6a113.15,113.15,0,0,0-13.81-9c-5.6-3.08-11.91-4.53-17-8.5a37.77,37.77,0,0,1-6.94-6.48c-.25-.33-1.17-1.43-.81-2s1.6-.21,3.33.85c1.43.87,2.82,1.84,4.23,2.76,5.54,3.63,11.06,7.28,16.45,11.13Q82.2,422.7,89.25,428.6Z" style="fill:#fff"></path><path d="M105.35,459a.11.11,0,0,1,0,.11.19.19,0,0,1-.2.17c-.23,0-.46,0-.69-.08l-.06,0c-5,.33-8.79,1.93-13.24,4a22.06,22.06,0,0,1-10.55,2.06A36.45,36.45,0,0,1,69,462.62c-1.51-.59-6.17-1.67-5.93-4.15.39-4.09,14.37-1.62,16.76-1.33a105.6,105.6,0,0,0,12.81.87c4.23,0,8.44-.15,12.57.87A.14.14,0,0,1,105.35,459Z" style="fill:#ebebeb"></path><path d="M102.65,458.92h0c-2.46-.08-4.93-.25-7.38-.2-2.75.06-5.46.65-8.22.72-5.17.11-10.28-.77-15.43-.9-.67,0-2,0-1.44,1,.24.45,1,.7,1.41.88a24.23,24.23,0,0,0,3.89,1.36,29.7,29.7,0,0,0,14.11.54c5.28-1.29,10.27-3.31,15.76-3.22a.11.11,0,0,0,0-.11A16.25,16.25,0,0,0,102.65,458.92Zm-11.48,2.59a29.83,29.83,0,0,1-17.54-.66,22.25,22.25,0,0,1-2.43-1c-.48-.26-1.22-.88.39-1a8.7,8.7,0,0,1,1.14,0c1.34.06,2.67.17,4,.28,2.85.24,5.7.52,8.57.56a52,52,0,0,0,7.58-.58,62.9,62.9,0,0,1,9.21-.22C98.39,459.21,94.75,460.51,91.17,461.51Z" style="fill:#fff"></path><path d="M89.23,451.2a.33.33,0,0,1,0,.22.5.5,0,0,1,0,.12.35.35,0,0,1-.06.14l0,0a.35.35,0,0,1-.34.1,16.53,16.53,0,0,1-2.26-.53c-8.68-1.5-17.59-3.12-25.28-7.53a54.7,54.7,0,0,1-10.74-8.23c-1.59-1.55-5.73-4.64-5.1-7.37s3.16-1.55,4.87-.82a117,117,0,0,1,13,6.31,64.11,64.11,0,0,1,11.47,8.42C79,445.93,83.06,450,88.91,451A.37.37,0,0,1,89.23,451.2Z" style="fill:#ebebeb"></path><path d="M72.08,442.71a139.88,139.88,0,0,0-17.39-10.46c-.77-.41-3-1.41-3,.2,0,1.9,3.13,3.52,4.37,4.41a106.64,106.64,0,0,0,14.89,9,59.13,59.13,0,0,0,18.3,5.7.5.5,0,0,0,0-.12c-10.49-1.71-20.21-6.39-29-12.18-2.13-1.4-4.28-2.81-6.28-4.38-.32-.25-2.22-2-1.74-2.67s2.84.67,3.14.83l4.1,2.25a164.18,164.18,0,0,1,14.77,9.44,40.23,40.23,0,0,0,15,6.71.33.33,0,0,0,0-.22C82.8,449.75,77.42,446.55,72.08,442.71Z" style="fill:#fff"></path><path d="M57.88,370.14A40,40,0,0,1,66.64,381c3.31,6.43,4.59,13.59,6.94,20.37l0,.08a47,47,0,0,0,2.21,5.42c.18.37.37.74.57,1.12a.27.27,0,0,1,0,.25.26.26,0,0,1-.14.11.32.32,0,0,1-.17,0h0a.29.29,0,0,1-.23-.15c-.31-.52-.59-1.05-.87-1.58a.12.12,0,0,1-.1-.06C69,398.67,62.54,390.8,56.11,383.12a71.17,71.17,0,0,1-7.72-10.85c-1.28-2.3-3-5.89-1.65-8.51a.54.54,0,0,1,.42-.35C51.24,363.3,55.15,367.62,57.88,370.14Z" style="fill:#ebebeb"></path><path d="M53.64,371.55c-2-.24-1.18,1.91-.66,3A80,80,0,0,0,58,382.68c2,3,4,5.95,6,8.87,3.86,5.53,8.78,10.82,12,16.78l0,0h0a.32.32,0,0,0,.17,0,.26.26,0,0,0,.14-.11l-.57-1.37c-.74-1.81-1.48-3.61-2.21-5.42l0-.08c-3.56-8.68-7.28-17.25-13.66-24.6C58.43,375,56.1,371.84,53.64,371.55Zm7.19,6.79a66.91,66.91,0,0,1,9.25,15.37c1.93,4.37,3.54,8.86,5.39,13.26-2-3.43-4.64-6.55-7-9.79q-5.55-7.62-10.7-15.53c-.83-1.26-1.64-2.53-2.45-3.82-.71-1.13-2.11-2.84-2.37-4.18-.53-2.6,2-1.26,2.85-.63a15.82,15.82,0,0,1,2,1.9Q59.4,376.58,60.83,378.34Z" style="fill:#fff"></path><path d="M124.71,405.8A193.69,193.69,0,0,1,124.5,432c-.63,8-1.34,16-.83,24,.67,10.66,3.85,21.86,10.92,29.85a124.94,124.94,0,0,1-27.71-30.76c-12.74-19.75-24.8-40.25-39.21-58.85-.24-.31-.66,0-.47.36C73.66,407,80.81,417,87.36,427.42s12.73,20.82,19.42,31c.73,1.1,1.47,2.19,2.22,3.26-8.22-6.9-19.1-11-29.31-12.66-.13,0-.14.17,0,.2a68.63,68.63,0,0,1,20.75,8.59c5.59,3.44,10.19,7.79,15,12.16a105.07,105.07,0,0,0,43.39,30.49.15.15,0,0,0,.11-.27,105.25,105.25,0,0,1-19.4-10.71c-10.73-9.59-14.08-24.55-14.23-38.72-.08-7.43.43-14.84.74-22.26s.72-15.37-.92-22.77A.21.21,0,0,0,124.71,405.8Z" style="fill:#ebebeb"></path></g><g id="freepik--Plant--inject-26"><path d="M389,395.93a26.77,26.77,0,0,0-5.45,10.29c-2.19,7.93.8,16.31-1.24,24.17q-.81,1.23-1.74,2.4l0,0s0,0,0,0h0a.13.13,0,0,0,0,.11,3.23,3.23,0,0,0,.27-.23c.18-.15.34-.3.5-.45s.45-.42.66-.65c0,0,.12-.09.13-.13,6.07-6.31,7.27-15.77,9.38-24,1.21-4.69,3.47-9,4.75-13.59.3-1.11,1.19-3.08-.49-3.34C393.9,390.33,390.09,394.72,389,395.93Z" style="fill:#455a64"></path><path d="M387.29,402.84c-4.48,8.84.35,20.46-5.6,28.64-.17.23-.35.45-.53.67s-.25.31-.38.46h0l-.16.18,0,0s0,0,0,0h0a.13.13,0,0,0,0,.11l0,0a.12.12,0,0,0,.1,0l.64-.69a12.81,12.81,0,0,0,1.35-1.8h0a31.69,31.69,0,0,0,5.2-12.2c1.24-5.59,2.14-11.15,3.51-16.76.17-.7,1.28-3.23.1-3.35C390,398,387.82,401.82,387.29,402.84Zm1-1.15c.3-.47,2.47-3.58,3.16-2.85.41.43-.67,3-.75,3.43l-1,4.6c-.67,3.22-1.31,6.45-2,9.68A42.57,42.57,0,0,1,384,427.87C387,419.74,383.37,409.32,388.34,401.69Z" style="fill:#fff"></path><path d="M348.32,481.87c0,.12,0,.33.18.3,8.82-1.38,15.78,6,24.62,5.22a39.76,39.76,0,0,0,10.33-2.71,31.9,31.9,0,0,0,7.09-3.46c.29-.2,1.66-.94,1.76-1.56.79-4.71-13.36-2.43-15.65-2.23-8.92.73-17.08,1.39-25.6,3.62-.88.22-1.78.47-2.67.74C348.35,481.79,348.34,481.83,348.32,481.87Z" style="fill:#455a64"></path><path d="M348.32,481.87l1-.14c5.72-.17,11.32,1.36,17,2.32a30.9,30.9,0,0,0,16.45-1.27c1-.36,4.86-1.63,4.6-3.26-.23-1.46-4-.52-4.86-.43-6.37.59-12.64,1.28-19.06,1.38-4.1.07-8.24.11-12.32.58-.88.22-1.78.47-2.67.74C348.35,481.79,348.34,481.83,348.32,481.87Zm4.05-.49c4.68-.43,9.4-.44,14.13-.56q4.86-.12,9.7-.63c1.77-.2,3.54-.41,5.31-.59.89-.09,1.77-.17,2.66-.24.44,0,1.92-.19,2,.49.15,1.83-11,5.81-21.66,3.41A66,66,0,0,0,352.37,481.38Z" style="fill:#fff"></path><path d="M365.49,473.94a.07.07,0,0,0,0,.1.07.07,0,0,0,.1,0l.61-.23c.75-.28,1.48-.58,2.2-.88l.4-.17h.09c8-3.17,17-1.2,24.57-5.62a34.39,34.39,0,0,0,8.67-7.69c1.08-1.28,5.18-4.82,3.85-6.81-1-1.54-4.16-.57-5.47-.16-4.16,1.33-7.92,4.1-11.48,6.53s-6.86,4.95-10.27,7.43a71.76,71.76,0,0,1-9.93,5.85Z" style="fill:#455a64"></path><path d="M365.49,473.94a.07.07,0,0,0,0,.1l2-.8-1.26.61c.75-.28,1.48-.58,2.2-.88l1.1-.52a96.58,96.58,0,0,1,13.81-3.89,20.13,20.13,0,0,0,6.55-2.49c3.76-2.27,10.75-8.44,10.59-9.92s-2.7.37-3.34.73c-5.11,2.93-9.8,6.51-15.08,9.17-3.56,1.79-7.13,3.54-10.71,5.3-.84.3-1.67.63-2.49,1Zm34.28-17.73c.49.52-1.35,2.19-1.83,2.63a95.15,95.15,0,0,1-7.33,6.13,20.83,20.83,0,0,1-8.89,3.46,68.9,68.9,0,0,0-8,2.08c3.48-1.6,7-3.23,10.32-5,2.79-1.5,5.42-3.26,8.07-5,1.32-.87,2.64-1.73,4-2.55.36-.22,3.23-2.19,3.67-1.72" style="fill:#fff"></path><path d="M309.33,490.39a.06.06,0,0,0,0,.09.07.07,0,0,0,.1,0l.33-.48c.41-.58.8-1.17,1.17-1.76l.21-.32.07,0c4.26-6.35,11.92-9.46,15.25-16.52a30.75,30.75,0,0,0,2.5-10c.15-1.49,1.38-6.16-.6-6.95-1.54-.61-3.35,1.67-4.11,2.64-2.39,3.07-3.76,7-5.15,10.59s-2.55,7.1-3.82,10.65a63.27,63.27,0,0,1-4.36,9.31C310.43,488.49,309.88,489.44,309.33,490.39Z" style="fill:#455a64"></path><path d="M309.33,490.39a.06.06,0,0,0,0,.09c.35-.53.69-1.06,1.05-1.59l-.62,1.09c.41-.58.8-1.17,1.17-1.76l.55-.93a85.34,85.34,0,0,1,8.2-9.82,18.16,18.16,0,0,0,3.57-5.14c1.61-3.57,3.66-11.63,2.79-12.64s-1.8,1.63-2.09,2.22c-2.29,4.73-3.93,9.73-6.48,14.35-1.71,3.11-3.46,6.2-5.2,9.3-.47.65-.92,1.3-1.35,2C310.43,488.49,309.88,489.44,309.33,490.39Zm4.32-6.67c1.76-2.93,3.49-5.88,5.06-8.91,1.29-2.51,2.34-5.13,3.42-7.74.53-1.31,1.07-2.61,1.66-3.89.15-.35,1.27-3.24,1.83-3.12s.11,2.29,0,2.86c-.65,2.74-1.38,5.54-2.3,8.21a18.62,18.62,0,0,1-4.8,7A62,62,0,0,0,313.65,483.72Z" style="fill:#fff"></path><path d="M306,495.75a1.08,1.08,0,0,0,.61.05c8.2.43,15.93,3.71,24.17,4.16a22.45,22.45,0,0,0,10.58-1.76c1.41-.65,6.3-2.88,6.34-4.91.13-6.08-30.7-.42-41.06,1.93a1.4,1.4,0,0,0-.47.09C305.85,495.42,305.8,495.64,306,495.75Z" style="fill:#455a64"></path><path d="M306,495.75l1.95-.16c2,.07,4,.18,6,.41,3.16.35,6.25,1.1,9.39,1.64A29.43,29.43,0,0,0,338,496.57c1-.34,4-1.17,4.06-2.63s-2.19-1-2.95-1c-10.78.3-21.61,1.34-32.36,2.31a5.12,5.12,0,0,0-.56,0C305.85,495.42,305.8,495.64,306,495.75Zm5.13-.43q6.3-.51,12.58-1,4.92-.36,9.85-.68c1.62-.11,3.24-.24,4.87-.31.64,0,3.12-.17,3,.65s-2.14,1.56-2.51,1.71c-5.82,2.33-11.89,2.18-17.93,1A70.05,70.05,0,0,0,311.14,495.32Z" style="fill:#fff"></path><path d="M365.89,451.4a.33.33,0,0,0-.15.26.38.38,0,0,0,.21.35.48.48,0,0,0,.21.07.17.17,0,0,0,.14,0c4.75-1.77,11.14-2.54,15.93-4.14a39.3,39.3,0,0,0,10.24-5.37A53.28,53.28,0,0,0,402.1,434c1.33-1.56,4.76-5.12,4.08-7.53-1.38-5-13.3,5.57-14.82,6.66Q378.6,442.2,365.89,451.4Z" style="fill:#455a64"></path><path d="M365.74,451.66a.38.38,0,0,0,.21.35l1-.58c2-.95,3.94-1.89,6-2.73,3.3-1.37,6.78-2.28,10-3.75,5.66-2.57,18.75-12.95,17.31-15.21-.75-1.17-3.3,1-4,1.52-2.68,1.93-5.1,4.18-7.81,6.08s-5.79,3.82-8.73,5.66c-4.54,2.81-9.09,5.61-13.6,8.47Zm4.17-2.07c4-2.48,8-5,12-7.51,2.77-1.73,5.53-3.5,8.17-5.43,1.47-1.09,2.88-2.25,4.29-3.42.69-.56,1.38-1.13,2.1-1.65s3.07-2.39,3.26-1.2-3.37,4.36-4.2,5.1c-1.36,1.19-2.73,2.37-4.14,3.51a43.18,43.18,0,0,1-9,5.7c-3.27,1.45-6.73,2.36-10,3.79C371.56,448.84,370.73,449.2,369.91,449.59Z" style="fill:#fff"></path><path d="M323.27,440.38c3.15,9.32,12.16,15.52,10.6,28.71,0,.05.05.07.08.05s0,0,0,0c.3-1.27.55-2.55.75-3.85a55.62,55.62,0,0,0-.7-21.13,41.72,41.72,0,0,0-4.65-11.7c-1.11-1.85-3.29-6.29-5.5-6.74C319.14,424.74,322.69,438.68,323.27,440.38Z" style="fill:#455a64"></path><path d="M325.44,436.46c.32,5.9,3.8,11.18,5.86,16.58a48.12,48.12,0,0,1,3,11.51c-.07,1.53-.18,3.05-.31,4.59,0,0,0,0,0,0,.3-1.27.55-2.55.75-3.85,0-.08,0-.15,0-.23a58.57,58.57,0,0,0-.57-12.37,61,61,0,0,0-4.76-16.36c-.4-.91-1.45-4.51-2.9-4.35S325.39,435.64,325.44,436.46Zm1.25-3.92c1,.06,3.16,5.68,4,7.94a60.94,60.94,0,0,1,3.44,15.13,56.16,56.16,0,0,1,.22,6.72,48.6,48.6,0,0,0-2-7.47c-1.76-5.09-4.69-9.83-6-15.05a16.84,16.84,0,0,1-.56-4.18C325.81,435.07,325.79,432.49,326.69,432.54Z" style="fill:#fff"></path><path d="M346.85,407.61a44.91,44.91,0,0,0-4.39,9.71A44.38,44.38,0,0,0,341,437.7c0,.12,0,.24.06.37-.09.33-.17.67-.23,1,0,.08,0,.15,0,.23v.05h0a.08.08,0,0,0,.16,0c.17-.38.35-.76.53-1.14,3.6-7.78,8.45-14.82,10.88-23.14.53-1.81,4.39-13.53-.38-13.35C349.8,401.81,347.77,406.06,346.85,407.61Z" style="fill:#455a64"></path><path d="M347.71,409.88c-2.41,4.71-3.45,10.46-4.54,15.61A118,118,0,0,0,341,437.7c-.05.33-.08.68-.11,1l-.06.36c0,.1,0,.19-.05.28h0a.08.08,0,0,0,.16,0c.17-.38.35-.76.53-1.14s.09-.64.14-1a100.59,100.59,0,0,1,5.23-13.09c1.06-2.33,2.05-4.67,2.88-7.08a34,34,0,0,0,2-7.24c.11-1.07.3-3.2-1.32-3.1C349.1,406.83,348.23,408.88,347.71,409.88Zm3.61-.36a37.78,37.78,0,0,1-2.5,8.68c-.95,2.63-2.11,5.17-3.27,7.7-1.22,2.69-2.47,5.42-3.42,8.23.58-3.81,1.2-7.61,2.08-11.39.7-3,1.46-5.91,2.36-8.8a22.78,22.78,0,0,1,1.76-4.35,12,12,0,0,1,.88-1.42C350.25,406.75,351.45,408.21,351.32,409.52Z" style="fill:#fff"></path><path d="M404,408.6c-.08.11-.15.23-.24.34a.25.25,0,0,0,.18.39.27.27,0,0,0,.25-.11c.15-.2.31-.4.46-.61h0l.37-.49c.31-.23.62-.45.95-.65,3.47-2.23,8.25-3.29,11.89-4.89a54.12,54.12,0,0,0,9.52-5.17,26.58,26.58,0,0,0,7.65-7.8c.51-.85,1.94-2.93,1.07-4-1.1-1.34-4.48.42-5.56.79A44.39,44.39,0,0,0,420,391.81C413.5,396.3,408.56,402.18,404,408.6Z" style="fill:#455a64"></path><path d="M405.35,407.32A14.64,14.64,0,0,0,404,408.6c-.08.11-.15.23-.24.34a.25.25,0,0,0,.18.39,2.2,2.2,0,0,1,.2-.23l.51-.49h0c.43-.4.86-.77,1.32-1.14a35.4,35.4,0,0,1,5.19-3.5c3.18-1.78,6.42-3.44,9.54-5.33,1.55-.95,13.55-8.28,11.12-10.57-.45-.43-1.29.06-1.72.23a23.79,23.79,0,0,0-4.19,2.38c-3.1,2.05-6.13,4.22-9.09,6.48A103.68,103.68,0,0,0,405.35,407.32Zm10.07-8.6c2.57-2,5.2-4,7.88-5.83,1.3-.91,2.61-1.84,4-2.68.67-.42,3.91-2.19,4.32-1.58.59.88-3.21,4.19-4.31,5.05s-2.54,1.9-3.86,2.78c-2.66,1.78-5.43,3.37-8.24,4.91-2.47,1.36-5.31,2.71-7.82,4.43A104.36,104.36,0,0,1,415.42,398.72Z" style="fill:#fff"></path><path d="M362.59,434.24c0,.14,0,.28,0,.42a.26.26,0,0,0,.35.25.28.28,0,0,0,.17-.22l.09-.76h0c0-.21,0-.41.07-.62s.31-.69.49-1c1.89-3.67,5.5-7,7.84-10.19a55,55,0,0,0,5.64-9.25,26.72,26.72,0,0,0,2.7-10.59c0-1,.21-3.51-1.08-4-1.63-.61-3.66,2.61-4.41,3.47a44.72,44.72,0,0,0-6.39,10C364.62,418.85,363.3,426.42,362.59,434.24Z" style="fill:#455a64"></path><path d="M363.1,432.47a16.83,16.83,0,0,0-.51,1.77c0,.14,0,.28,0,.42a.26.26,0,0,0,.35.25l.06-.3.2-.68h0c.17-.56.36-1.1.56-1.65a36.44,36.44,0,0,1,2.74-5.63c1.86-3.13,3.83-6.2,5.57-9.4.87-1.61,7.57-14,4.33-14.72-.61-.15-1.1.7-1.38,1.06a24.05,24.05,0,0,0-2.43,4.16c-1.66,3.33-3.19,6.73-4.61,10.17A102.56,102.56,0,0,0,363.1,432.47ZM367.49,420q1.81-4.56,3.89-9c.67-1.44,1.34-2.9,2.09-4.31.37-.69,2.29-3.85,2.95-3.53.95.46-.68,5.23-1.2,6.53q-.89,2.2-1.94,4.34c-1.41,2.87-3,5.65-4.66,8.38-1.46,2.42-3.24,5-4.55,7.76A106.51,106.51,0,0,1,367.49,420Z" style="fill:#fff"></path><path d="M343.15,431.92a198.3,198.3,0,0,0-4.8,21.95c-.89,5.75-1.79,11.57-4,17a43.74,43.74,0,0,1-13.54,17.43q4.2-1.89,8.38-3.89c5.67-2.73,11.38-5.57,16.31-9.54.48-.39.95-.8,1.42-1.21a.13.13,0,0,1,0-.13,76,76,0,0,0,10.5-20.07,63.52,63.52,0,0,0,.09-12.34,50.2,50.2,0,0,1,0-12.55.2.2,0,0,1,.39,0c-.31,5.84,1.45,12.45,1.45,18.65.25-.91.49-1.83.71-2.76,2.14-8.87,3-18.37,9.6-25.24.22-.23.53.13.33.36-6.88,7.88-6.9,19.92-9.61,29.58-2,7.19-4.91,14.61-9.53,20.61a121,121,0,0,0,8-10c15.38-20.74,31.51-41,52-56.95.2-.15.47.13.27.3-21.53,17.62-37,40.29-53.85,62.11-.2.25-.39.5-.59.74a51,51,0,0,1,11.06-5.51.16.16,0,0,1,.14.29c-5.14,2.75-9.69,6.24-14.6,9.32a52.25,52.25,0,0,1-8.65,7.95,85.49,85.49,0,0,1-12.25,7.05c6.42-1.85,12.85-3.63,19.14-5.94a229,229,0,0,0,27.82-12.28.12.12,0,0,1,.1.21A191.18,191.18,0,0,1,351.08,481c-8.38,3.21-17.24,6.34-26.19,7.68-10.09,4.73-20.65,9.28-31.59,11.16a.4.4,0,0,1-.17-.79c2.16-.69,4.3-1.42,6.42-2.17,2.91-2.61,6.25-4.7,9-7.49a57.5,57.5,0,0,0,8.53-10.88c.18-.29.6,0,.44.28-2.89,5.58-7.31,12.07-12.79,16.18q4.61-1.74,9.14-3.65c9.2-5.94,17.19-14.31,20.43-24.87,1.67-5.42,2.4-11,3.42-16.62a123.14,123.14,0,0,1,5-18A.21.21,0,0,1,343.15,431.92Z" style="fill:#455a64"></path><path d="M131,407.55c2.72,2.27,4.57,5.93,6.19,9A87.26,87.26,0,0,1,142,427.45c1.27,3.48,2.36,7,3.39,10.56l0,.1c.07.23.13.47.2.7s.23.54.34.82a.18.18,0,0,1-.06.21.15.15,0,0,1-.24,0c-.07-.15-.13-.3-.2-.44-2.89-6.1-9.33-9.44-12.9-15.07-2-3.09-3-6.69-4.24-10.11-.67-1.89-1.88-4.15-2.16-6.14-.07-.53-.3-1,0-1.52C127.23,405,130.05,406.76,131,407.55Z" style="fill:#455a64"></path><path d="M130.88,410.51c-1.35-.22-.67,2.18-.52,2.85a32.13,32.13,0,0,0,6,13.05c3.3,3.93,6.64,7.83,8.89,12.43,0,.17.09.34.13.51s.13.29.2.44a.15.15,0,0,0,.24,0l-.11-.29c-.11-.48-.24-1-.37-1.44l0-.1a95.79,95.79,0,0,0-3.76-9.94,67.23,67.23,0,0,0-6.79-13.2,35.87,35.87,0,0,0-2.19-2.85C132.22,411.56,131.54,410.61,130.88,410.51Zm2,2.28c.8,1,1.54,2,2.24,3.06a69.84,69.84,0,0,1,5.91,11.63,94.12,94.12,0,0,1,4,10.58,38.59,38.59,0,0,0-4.73-7.36c-1.36-1.74-2.84-3.36-4.22-5.08a24.46,24.46,0,0,1-3.47-6.47,30.9,30.9,0,0,1-2.16-6.6c-.07-.46-.13-1.54.23-1.67C131.36,410.65,132.59,412.4,132.9,412.79Z" style="fill:#fff"></path><path d="M130.83,467.12h0" style="fill:#455a64"></path><path d="M177.49,493.64a.17.17,0,0,1,.17.13h0a.17.17,0,0,1,0,.18.26.26,0,0,1-.13.06c-4.6.28-9.66-.6-13.9,1.6-3.32,1.71-5.85,3.72-9.68,4.19a28.18,28.18,0,0,1-11.61-1.09,29.62,29.62,0,0,1-4.94-2.06c-.75-.4-2.94-1.22-3.23-2.14-1.38-4.26,13.75-4.09,15.76-4,8.93.16,18.27.75,27,3a.06.06,0,0,1,0,.06s0,.06,0,.08Z" style="fill:#455a64"></path><path d="M177.49,493.64l-.61-.05s0,0,0-.08c-5.25-.64-10.58-.89-15.87-1a130.86,130.86,0,0,0-17.15.29c-.77.08-4.21,0-4.17,1.34s4,2,4.87,2.19c5.06,1,10.19-.14,15.1-1.36a36.16,36.16,0,0,1,9.62-1.51c2.79.07,5.55.45,8.33.54a.17.17,0,0,0,0-.18c-1.43,0-2.86-.2-4.28-.33l4.28.32A.17.17,0,0,0,177.49,493.64ZM165,493.39c-5,.79-9.79,2.65-14.9,2.94a20.11,20.11,0,0,1-7.27-.81c-.45-.13-2.55-.69-2.56-1.4,0-.47,1.24-.76,1.43-.79a36.2,36.2,0,0,1,4.27-.47c5-.29,10-.25,15-.11,2.77.07,5.53.22,8.28.41A23.2,23.2,0,0,0,165,493.39Z" style="fill:#fff"></path><path d="M115.64,425a30.23,30.23,0,0,1,4.81,10.93c2.27,8.83,2.23,18.31,5.48,26.89.12.34.26.68.39,1,.31.36.2.3-.21-.11h0c-1.78-1.74-9.11-9.75-12-16.86A66.61,66.61,0,0,1,110.53,433c-.48-2.68-1-5.36-1.44-8-.15-.86-1-3.1,0-3.88C111,419.54,114.68,423.72,115.64,425Z" style="fill:#455a64"></path><path d="M112.45,427.73c-.48,0-.69.33-.77.78a4,4,0,0,0,.33,1.6c.26.93.52,1.85.79,2.78,1.8,6.38,3.18,13.18,6,19.22a54.75,54.75,0,0,0,7.08,11.19l.22.37h0c.41.41.52.47.21.11-.13-.33-.27-.67-.39-1s-.49-.86-.71-1.3a40.58,40.58,0,0,1-3.1-9.75,100.15,100.15,0,0,0-5.64-18.64,19.14,19.14,0,0,0-2.07-3.83C114,428.72,113.23,427.68,112.45,427.73Zm1.55,1.5a5.3,5.3,0,0,1,.56.78,17.55,17.55,0,0,1,1,1.8c.73,1.49,1.33,3,1.91,4.58a138,138,0,0,1,4.7,17,36.44,36.44,0,0,0,2.78,8.25,71.81,71.81,0,0,1-4-6.14c-3.14-5.42-4.63-11.42-6.33-17.4l-1.26-4.44-.63-2.22-.32-1.11c-.21-.74-.47-.95.14-1.57S113.44,428.55,114,429.23Z" style="fill:#fff"></path><path d="M139.55,453.49a48.86,48.86,0,0,1,6.61,6.57c4,4.81,6.77,11.43,11.26,15.91l1,.86.34.34c.06.06,0,.17-.11.12l-.73-.48h0c-.12-.08-.26-.16-.38-.25-5.65-3.62-11.79-6.36-16.3-11.5-2.77-3.16-9.62-12.34-7.7-14.46C134.33,449.65,138.08,452.3,139.55,453.49Z" style="fill:#455a64"></path><path d="M137.71,455.26c-.4.6.26,1.68.49,2.17a26.7,26.7,0,0,0,2.27,3.58,43.19,43.19,0,0,0,5.23,5.91,84,84,0,0,0,11.78,9.63c.12.09.26.17.38.25h0l.73.48c.07,0,.17-.06.11-.12l-.34-.34C154,473.3,150.46,469,147,464.46,146.27,463.46,139.11,453.22,137.71,455.26ZM142,458.6c.76.91,1.49,1.85,2.23,2.79,1.7,2.19,3.36,4.42,5.1,6.59a61.75,61.75,0,0,0,6.1,6.74,107.35,107.35,0,0,1-8.35-6.88,58.47,58.47,0,0,1-4.95-5.13,29.09,29.09,0,0,1-2.28-3.13c-.34-.52-2.36-3.47-1.88-4.1C138.59,454.69,141.69,458.2,142,458.6Z" style="fill:#fff"></path><path d="M155.89,429.87c2.24.84,3.48,4.38,3.76,6.47a17.71,17.71,0,0,1-1.42,8.73c-1.58,4-3.8,7.72-4.6,12s-.5,3-.1,7.58c0,.09-.06.13-.15.11a.82.82,0,0,1-.44-.52,1.17,1.17,0,0,1-.05-.11c-1.9-6.89-1.59-13.38-.25-20.41.76-4,.2-8.14,1.11-12.09C154.09,430.19,154.36,429.29,155.89,429.87Z" style="fill:#455a64"></path><path d="M156.35,433.81c-1.12.1-1.19,2.53-1.26,3.43A43.48,43.48,0,0,1,154,445a54.32,54.32,0,0,0-1.54,6.77,34.43,34.43,0,0,0,.23,10.58,15.35,15.35,0,0,0,.24,1.88.82.82,0,0,0,.44.52c0-.09,0-.16,0-.24A23.75,23.75,0,0,1,155.11,451c1.87-4.49,3.38-9.15,2.89-14.08C157.92,436,157.39,433.73,156.35,433.81Zm1.34,2.62a19.41,19.41,0,0,1,.14,2.53,23.92,23.92,0,0,1-.5,4.55,42.93,42.93,0,0,1-2.6,7.66,25.91,25.91,0,0,0-2.09,9.09,35,35,0,0,1,.19-9.2c.43-2.73,1.39-5.31,1.9-8,.23-1.25.34-2.51.45-3.77.06-.68.11-1.36.17-2s.12-2.68.83-2.93C157.1,434,157.65,436.09,157.69,436.43Z" style="fill:#fff"></path><path d="M92.41,446.74c8.76,2.88,17.33,6.28,25.76,10a.24.24,0,0,1,.15.25v0l.16.08a.1.1,0,0,1,0,.14l0,0h0a.18.18,0,0,1-.11,0c-5.17-1.31-10-2.52-15.42-2.23-4.93.26-9.61.82-14.52,0-4.19-.73-19-7.78-19.33-11.33C68.89,441.34,85.44,444.46,92.41,446.74Z" style="fill:#455a64"></path><path d="M83.55,446.58c-1.07-.26-4.62-1.7-5.6-.42s2.62,2.73,3.33,3.07a44.31,44.31,0,0,0,8.08,3.06,44.15,44.15,0,0,0,8.43.77,85.67,85.67,0,0,1,20.7,4.23h0l0,0a.1.1,0,0,0,0-.14l-.16-.08v0C107.11,452.41,95.27,449.48,83.55,446.58ZM117.72,457a99.17,99.17,0,0,0-14.08-3.49c-5.55-.94-11.21-.33-16.59-2.15A32.9,32.9,0,0,1,79.41,448c-.31-.2-1.39-.84-1.25-1.43s1.26-.63,3-.25c1.44.31,2.88.71,4.31,1.07,5.65,1.42,11.3,2.86,16.89,4.5Q110.14,454.12,117.72,457Z" style="fill:#fff"></path><path d="M139.88,477.59a.13.13,0,0,1,0,.1.16.16,0,0,1-.12.19l-.6.14a.08.08,0,0,1,0,0c-4.06,1.72-6.75,4.15-9.84,7.19a19.35,19.35,0,0,1-8.17,4.76,32,32,0,0,1-10.41,1.09c-1.42-.06-5.61.39-6.13-1.74-.86-3.51,11.48-5.49,13.55-5.95a89.63,89.63,0,0,0,10.9-3c3.5-1.23,7-2.55,10.7-2.9A.11.11,0,0,1,139.88,477.59Z" style="fill:#455a64"></path><path d="M137.62,478.31h0c-2.06.65-4.17,1.21-6.19,2-2.27.84-4.35,2.12-6.63,3-4.26,1.59-8.76,2.33-13.08,3.72-.56.18-1.66.56-.9,1.25.32.31,1,.3,1.43.33a20.84,20.84,0,0,0,3.62,0,26.23,26.23,0,0,0,11.89-3.63c4-2.6,7.58-5.72,12.17-7.23a.13.13,0,0,0,0-.1A14.85,14.85,0,0,0,137.62,478.31Zm-8.8,5.47a26.27,26.27,0,0,1-14.77,4.52,20,20,0,0,1-2.31-.14c-.48-.08-1.27-.38,0-.93a6.74,6.74,0,0,1,1-.29c1.13-.33,2.27-.63,3.42-.93,2.44-.62,4.89-1.21,7.29-2a46.2,46.2,0,0,0,6.13-2.67,53.84,53.84,0,0,1,7.6-2.85C134.16,479.78,131.5,481.91,128.82,483.78Z" style="fill:#fff"></path><path d="M124.23,475.77a.27.27,0,0,1,.1.17.2.2,0,0,1,0,.1.32.32,0,0,1,0,.14s0,0,0,0a.31.31,0,0,1-.25.18,13.07,13.07,0,0,1-2,.21c-7.64,1.27-15.52,2.49-23.19,1.05a47.6,47.6,0,0,1-11.3-3.74c-1.77-.83-6.1-2.2-6.37-4.65s2.18-2.2,3.81-2.09a102.72,102.72,0,0,1,12.62,1.5,56.2,56.2,0,0,1,12,3.68c4.6,2,9.17,4.18,14.31,3.3A.36.36,0,0,1,124.23,475.77Z" style="fill:#455a64"></path><path d="M107.52,473.67A122.55,122.55,0,0,0,90,470c-.76-.12-2.89-.31-2.42,1,.55,1.58,3.61,2,4.9,2.4a93.33,93.33,0,0,0,15,3.16,52.12,52.12,0,0,0,16.86-.55.2.2,0,0,0,0-.1c-9.21,1.61-18.65.53-27.65-1.74-2.17-.55-4.36-1.1-6.48-1.82-.34-.12-2.42-1-2.22-1.72s2.56-.27,2.85-.21c1.35.22,2.7.44,4,.68a143,143,0,0,1,15,3.58,35.49,35.49,0,0,0,14.44,1.23.27.27,0,0,0-.1-.17C118.46,476.43,113.07,475.32,107.52,473.67Z" style="fill:#fff"></path><path d="M74.75,417.45a35.42,35.42,0,0,1,10.41,6.48c4.61,4.39,7.74,10,11.66,14.93l0,.06a42.79,42.79,0,0,0,3.41,3.86c.25.26.52.51.79.77a.22.22,0,0,1,.08.2.31.31,0,0,1-.09.14.27.27,0,0,1-.13.07h0a.3.3,0,0,1-.23-.06c-.4-.35-.79-.7-1.18-1.07a.12.12,0,0,1-.1,0C92.23,438,84.59,433.28,77,428.75A62.23,62.23,0,0,1,67.47,422c-1.73-1.54-4.19-4-3.83-6.6a.49.49,0,0,1,.25-.41C67.25,413.69,71.75,416.14,74.75,417.45Z" style="fill:#455a64"></path><path d="M71.63,419.85c-1.74.38-.43,1.93.32,2.67a70.17,70.17,0,0,0,6.55,5.3q3.73,2.88,7.56,5.65c4.81,3.47,10.43,6.45,14.83,10.47l0,0h0a.27.27,0,0,0,.13-.07.31.31,0,0,0,.09-.14l-.87-1c-1.14-1.28-2.28-2.58-3.41-3.86l0-.06c-5.47-6.19-11-12.24-18.47-16.51C76.62,421.36,73.76,419.37,71.63,419.85Zm7.94,3.56A59.33,59.33,0,0,1,91.7,433.52c2.86,3.07,5.5,6.34,8.31,9.46-2.68-2.26-5.75-4.1-8.65-6.11q-6.81-4.74-13.38-9.82c-1-.81-2.1-1.63-3.14-2.46s-2.57-1.76-3.18-2.8c-1.19-2,1.29-1.62,2.19-1.35a14,14,0,0,1,2.23,1C77.27,422.06,78.43,422.72,79.57,423.41Z" style="fill:#fff"></path><path d="M140.6,427.78A171.13,171.13,0,0,1,148,449.59c1.79,6.83,3.51,13.69,6.25,20.21,3.64,8.67,9.51,17.06,17.7,21.66A109.87,109.87,0,0,1,140,473.89c-16.3-12.73-32.24-26.29-49.6-37.58-.29-.19-.53.23-.28.44,8.39,6.8,17.22,13.06,25.66,19.79s16.6,13.63,25.11,20.17c.92.71,1.85,1.39,2.79,2.06-8.83-3.35-19.07-3.64-28-2-.11,0-.07.19,0,.18A60,60,0,0,1,135.44,478c5.65,1.24,10.73,3.53,16,5.77a92.54,92.54,0,0,0,44.88,12.81.13.13,0,0,0,0-.26,92.67,92.67,0,0,1-19.22-3.3c-11.68-4.87-18.8-16.34-23-28.07-2.22-6.15-3.93-12.46-5.82-18.71s-3.85-13-7.35-18.67A.18.18,0,0,0,140.6,427.78Z" style="fill:#455a64"></path></g><g id="freepik--Wall--inject-26"><rect x="144.54" width="210.93" height="500" style="fill:#fff"></rect><rect x="144.64" y="448.07" width="210.82" height="51.93" style="fill:#ebebeb"></rect><path d="M329.91,156.52c-6.5.1-22.91.35-29.19.42l-9.84,0h-.45v-.46l-.05-12.42v-.5h.5l19.52.07c4.86,0,14.65.13,19.51.19h.24v.23l-.24,12.42Zm0,0-.24-12.42.24.24-9.76.11c-6.19.08-22.86.13-29.27.15l.5-.5,0,12.42-.46-.45,9.68,0c6.19.06,22.95.32,29.35.41Z" style="fill:#ebebeb"></path><path d="M249.83,41.55c-6.51.1-22.91.35-29.2.41l-9.83,0h-.46v-.46l0-12.42v-.5h.5l19.51.07c4.86,0,14.66.13,19.52.19h.24v.24l-.23,12.42Zm0,0-.24-12.42.24.23-9.76.11c-6.19.08-22.87.14-29.27.16l.5-.5-.05,12.42-.45-.46,9.68,0c6.18.06,23,.31,29.35.41Z" style="fill:#ebebeb"></path><rect x="189.03" y="44.79" width="39.03" height="12.42" style="fill:#ebebeb"></rect><path d="M206.37,204.14c-6.5.1-22.91.35-29.19.41l-9.84,0h-.45v-.45l0-12.43v-.5h.5l19.52.07c4.85,0,14.65.13,19.51.2h.24v.23l-.24,12.43Zm0,0-.24-12.43.24.24-9.76.11c-6.19.08-22.87.14-29.27.15l.5-.5,0,12.43-.46-.46,9.68,0c6.19.07,22.95.32,29.35.42Z" style="fill:#ebebeb"></path><rect x="145.57" y="207.38" width="39.03" height="12.42" style="fill:#ebebeb"></rect><path d="M206.37,41.55c-6.5.1-22.91.35-29.19.41l-9.84,0h-.45v-.46l0-12.42v-.5h.5l19.52.07c4.85,0,14.65.13,19.51.19h.24v.24l-.24,12.42Zm0,0-.24-12.42.24.23-9.76.11c-6.19.08-22.87.14-29.27.16l.5-.5,0,12.42-.46-.46,9.68,0c6.19.06,22.95.31,29.35.41Z" style="fill:#ebebeb"></path><rect x="210.8" y="404.66" width="39.03" height="12.42" style="fill:#ebebeb"></rect><path d="M308.14,301.25c-6.5.1-22.91.35-29.19.41l-9.84,0h-.45v-.46l-.05-12.42v-.5h.5l19.52.07c4.85,0,14.65.13,19.51.19h.24v.24l-.24,12.42Zm0,0-.24-12.42.24.23-9.76.11c-6.19.08-22.86.14-29.27.16l.5-.5,0,12.42-.46-.46,9.68,0c6.19.06,22.95.31,29.35.41Z" style="fill:#ebebeb"></path><rect x="290.88" y="304.49" width="39.03" height="12.42" style="fill:#ebebeb"></rect></g><g id="freepik--character-2--inject-26"><rect x="354.96" width="1" height="398.18" style="fill:#ebebeb"></rect><path d="M447.51,189a.93.93,0,0,1-1,.7c-1.05-.28-2.29-.63-3.69-1-.35-9.79-1.56-17.88-1.53-14.88a48.34,48.34,0,0,1-2.08,13.86L432,185.48c2.25-16.22,2.4-28.78,1.47-25.21-3.76,14.38-6.06,18.61-8.61,23.11-17.44-5.21-40.22-12.29-56.59-17.78.91-9.08,2.29-18.77,1.79-18.24-3.8,4-6.69,10.67-8.5,16-5.2-1.78-9.32-3.3-11.79-4.36,0,0,1.14-7.51,1.74-9.9a52.08,52.08,0,0,1,7.69-17.1c3.68-5.3,8.39-9.47,13-13.82a.44.44,0,0,1,.11-.09s0,0,0,0a52.39,52.39,0,0,0,8-9.46.28.28,0,0,0,.05-.08,50.44,50.44,0,0,0,4.14-8c4.2-10.14,12.87-17.14,23.28-16.55,19.43-8.66,39.64,6.33,40.29,22.71v0c-.16,6.66-1.1,15-1.58,21.59a0,0,0,0,0,0,0s0,0,0,.08h0a61.07,61.07,0,0,0-.18,7.72C447.2,148.6,455.51,158.4,447.51,189Z" style="fill:#263238"></path><path d="M402.65,85.38c-7.34,1.16-12.78,4.7-16.26,12-2,4.22-3.74,8.44-6.78,12s-7,6.3-10.94,8.86c-6.26,4.07-11.18,8.58-14.34,15.79s-5.81,16.37-5.67,24.3c0,0,.07,0,.07,0,.36-7.86,3.59-17.79,7.32-24.85,4.09-7.76,10.33-11.35,17-16a36,36,0,0,0,12.38-14.42c1.71-3.59,2.95-7.51,5.59-10.53,3.15-3.61,7.53-5.07,11.78-6.24A.47.47,0,0,0,402.65,85.38Z" style="fill:#263238"></path><path d="M452.85,151.46c-2.44-7.44-5.35-14.07-5.5-22.29-.14-7.49.85-15,.67-22.5a.09.09,0,1,0-.17,0c-.24,13.11-3.48,25.29.64,37.84,2.24,6.81,4.61,13.23,5.12,20.64A62.86,62.86,0,0,1,450.7,188a.19.19,0,1,0,.35.12A51.87,51.87,0,0,0,452.85,151.46Z" style="fill:#263238"></path><path d="M407.71,83.83c2.83-.07,10-13.29,3.07-23.12s-21.37-6.24-20.34,6.95C391.09,76,401.72,84,407.71,83.83Z" style="fill:#263238"></path><path d="M398.17,55.47a16.6,16.6,0,0,0-8.36,7.08,10,10,0,0,0-.29,10c1.61,3.19,4.5,5.66,7.63,7.61a30.44,30.44,0,0,0,5,2.44,15.35,15.35,0,0,0,5.52,1.23,13.42,13.42,0,0,1-5.81-.23,24.94,24.94,0,0,1-5.54-2,19.57,19.57,0,0,1-8.72-8.09,11.11,11.11,0,0,1,.78-11.84A14.6,14.6,0,0,1,398.17,55.47Z" style="fill:#263238"></path><path d="M409.78,187.67c19.72,47.8,32.78,136.73,19,148.05-15.38,12.61-42.72-54.26-41.4-57,1-2.05,2.29-52.31,2.71-89.08S404.91,175.86,409.78,187.67Z" style="fill: rgb(173, 99, 89);"></path><path d="M387,278.67c.47-5.24,1.47-71.8,2.47-92.57s9.23-24,20.75.12,28.95,96,26.07,129.23c-2.76,32-17.39,26-31.34,5.07C393.54,303.36,387,278.67,387,278.67Z" style="fill:#455a64"></path><path d="M387,278.67s6.53,24.69,17.95,41.85c14,21,28.58,26.93,31.35-5.07.83-9.53,0-22.25-1.92-36.11L394.26,170c-2.66,1.81-4.35,7.43-4.77,16.13C388.49,206.87,387.48,273.43,387,278.67Z" style="opacity:0.1"></path><path d="M409.92,235c-1.68,11.43-14.33,18.43-14.33,18.43L355.93,310.4v-144a55.11,55.11,0,0,1,6.7-4c15.14-7.43,25.48-2.55,32.05,8C396.32,173.13,411.82,222.11,409.92,235Z" style="fill:#455a64"></path><path d="M369.58,232.83a64.9,64.9,0,0,1,11.67,7.8c1.8,1.55,3.51,3.24,5.2,5,.84.88,1.7,1.7,2.57,2.52a10.45,10.45,0,0,0,3,2.12c.09,0,0,.27-.09.24a17,17,0,0,1-3.14-1.24,17.59,17.59,0,0,1-2.72-1.95c-1.84-1.56-3.61-3.25-5.43-4.83a144.18,144.18,0,0,0-11.27-9.13C369.16,233.22,369.39,232.72,369.58,232.83Z" style="fill:#263238"></path><path d="M356.9,234.74a67.77,67.77,0,0,1,11,3.08,45.72,45.72,0,0,1,5.17,2.41c.8.43,1.6.89,2.38,1.36s1.66,1.21,2.53,1.7c.1.06,0,.28-.08.24-.84-.43-1.78-.65-2.65-1l-2.63-1.07c-1.76-.71-3.53-1.39-5.27-2.12-3.5-1.47-7-2.88-10.57-4.16C356.55,235.11,356.71,234.7,356.9,234.74Z" style="fill:#263238"></path><path d="M376.27,163.77c-.31,2.31,4.59,20,14.49,23.24,3.23,1.05,9.75-16.31,9.75-16.31l.77-1.17,10.83-16.4-15.92-21.52-2.36-2.94s-2.67,4.68-5.93,10.54l-.46.84c-.2.32-.38.63-.55.94-.5.87-1,1.76-1.49,2.66-.37.68-.73,1.34-1.1,2.07s-.74,1.43-1.12,2.16C379.54,155.08,376.41,162.79,376.27,163.77Z" style="fill: rgb(173, 99, 89);"></path><path d="M387.9,139.21a39.45,39.45,0,0,0,13.38,30.32l10.83-16.4-15.92-21.52-2.36-2.94S391.16,133.35,387.9,139.21Z" style="fill:#263238"></path><path d="M447.2,130.28c-4.69,34.17-25.68,35.22-33.05,34.2-6.69-.93-29.34-4.93-28.21-39.4S404.45,82,419.86,83.3,451.89,96.11,447.2,130.28Z" style="fill: rgb(173, 99, 89);"></path><path d="M439.84,122.52a23.21,23.21,0,0,1-2.27-.89,3.93,3.93,0,0,1-2.14-1.36,1.25,1.25,0,0,1,.26-1.5,3.11,3.11,0,0,1,3.15-.21,4.54,4.54,0,0,1,2.55,2.08A1.33,1.33,0,0,1,439.84,122.52Z" style="fill:#263238"></path><path d="M416.79,117.52a21.84,21.84,0,0,0,2.43-.09,3.92,3.92,0,0,0,2.47-.58,1.24,1.24,0,0,0,.25-1.51,3.12,3.12,0,0,0-2.9-1.23,4.57,4.57,0,0,0-3.1,1.12A1.33,1.33,0,0,0,416.79,117.52Z" style="fill:#263238"></path><path d="M420.3,127.17c0-.09-.2.09-.21.18-.27,2.39-1,5.08-3.25,5.55-.07,0-.08.14,0,.14C419.52,133.05,420.43,129.47,420.3,127.17Z" style="fill:#263238"></path><path d="M418.54,124.38c-3.78-.85-5.2,6.77-1.69,7.56S421.71,125.09,418.54,124.38Z" style="fill:#263238"></path><path d="M417,124.5c-.75.31-1.54,1-2.36.88s-1.49-1-2-1.89c0-.09-.12,0-.15.06-.29,1.46,0,3.06,1.52,3.57s2.66-.64,3.29-2C417.43,124.82,417.27,124.38,417,124.5Z" style="fill:#263238"></path><path d="M434.13,129.12c0-.09.16.15.14.24-.54,2.34-.75,5.12,1.23,6.31.06,0,0,.16-.05.13C432.92,134.93,433.25,131.25,434.13,129.12Z" style="fill:#263238"></path><path d="M436.71,127.06c3.85.45,2.67,8.12-.9,7.7S433.48,126.69,436.71,127.06Z" style="fill:#263238"></path><path d="M438.23,127.81c.54.5,1,1.33,1.74,1.49s1.58-.55,2.24-1.26c.07-.07.12,0,.1.1-.18,1.47-.9,2.92-2.35,3s-2.07-1.34-2.2-2.86C437.74,128,438,127.61,438.23,127.81Z" style="fill:#263238"></path><path d="M417.3,146.35c.41.69.76,1.59,1.58,1.88a6.23,6.23,0,0,0,2.65.08c.08,0,.14.09.07.15a3.22,3.22,0,0,1-3.28.47,2.56,2.56,0,0,1-1.28-2.54C417,146.25,417.24,146.25,417.3,146.35Z" style="fill:#263238"></path><path d="M429.11,139.05s-.32,4.16-.66,5.82c0,.15-5.86-.75-8.05-5-.09-.18.17-.32.3-.18a12.16,12.16,0,0,0,6.68,3.7c.21-.43.29-6.35.56-6.32a15,15,0,0,1,3.58,1.63c.72-7.51.23-15.07,1.06-22.54a.23.23,0,0,1,.46,0c1.07,7.89.43,16.55-.11,24.33C432.87,141.42,429.72,139.47,429.11,139.05Z" style="fill:#263238"></path><path d="M433.69,95.05s0,5.38-2.66,8.57c-5.5,6.56-14,2.26-17.8,4.42-3.6,2-4.08,8-7.4,10.14-4.61,2.91-9.12.14-10.39,2.58s-5.11,10.22-8.66,10.42S383.72,72.74,424.89,84c0,0,7.24-.14,15.17,6.86,8.76,7.72,8,29.08,8,29.08a11.12,11.12,0,0,0-1.26-4.7c-1.6-2.38-2-4.28-3.17-5.86-1.9-2.49-3.39-2.12-5.4-4.59C435.18,101,433.69,95.05,433.69,95.05Z" style="fill:#263238"></path><path d="M433.66,92.49a30.72,30.72,0,0,1-.46,6.92,12.46,12.46,0,0,1-2.58,6.17,9.16,9.16,0,0,1-5.92,2.57c-2.23.23-4.54-.14-7,.17a7,7,0,0,0-3.44,1.42,9.32,9.32,0,0,0-2.12,3c-1,2.09-2.06,4.15-3.92,5.35a7.67,7.67,0,0,1-6.38.93c-2.17-.56-4.4-1.79-6.75-1.38,2.38-.22,4.38,1.13,6.59,1.89a8.3,8.3,0,0,0,7-.73c2.19-1.24,3.32-3.6,4.36-5.6a8.31,8.31,0,0,1,1.91-2.64,5.84,5.84,0,0,1,2.93-1.14c2.18-.33,4.52,0,6.9-.26a12.11,12.11,0,0,0,3.49-.89,7.2,7.2,0,0,0,3-2.12,13.11,13.11,0,0,0,2.47-6.65A30.34,30.34,0,0,0,433.66,92.49Z" style="fill:#263238"></path><path d="M434,94.67a24.39,24.39,0,0,0,.54,6.48,11.3,11.3,0,0,0,3.07,5.87,16.23,16.23,0,0,0,2.66,1.93,5.3,5.3,0,0,1,1.92,2.17,16.17,16.17,0,0,0,1.2,3,7.25,7.25,0,0,0,2.31,2.3,7.88,7.88,0,0,1-1.83-2.56,17,17,0,0,1-.89-3,5.51,5.51,0,0,0-2.11-2.73,16.78,16.78,0,0,1-2.5-1.87,12,12,0,0,1-3-5.32A47.24,47.24,0,0,1,434,94.67Z" style="fill:#263238"></path><path d="M393.44,127.14s-5-12.16-10.32-10.62-3.29,18,1.83,21.36a5.84,5.84,0,0,0,8.32-1.33Z" style="fill: rgb(173, 99, 89);"></path><path d="M383.83,121.23c-.09,0-.13.09-.06.14,3.56,2.48,4.8,6.58,5.39,10.68-.84-1.72-2.24-2.87-4.5-1.93-.12,0-.06.24.06.24a3.58,3.58,0,0,1,3.57,2.09,17.41,17.41,0,0,1,1.14,3.54c.1.39.78.34.74-.09,0,0,0-.07,0-.1C391.39,130.82,389.09,123,383.83,121.23Z" style="fill:#263238"></path><path d="M427.37,334.58c-14.18,1.52-27.8-7.28-72.46-41.95-6.18-4.8,10.15-59.52,18-56.57,10.42,3.93,43.95,30.71,46.07,32.86C436.88,287,437,333.54,427.37,334.58Z" style="fill: rgb(173, 99, 89);"></path><path d="M382,237.67l-8.95,73.05s40.82,29.63,55.08,26.8c9.39-1.86,10.28-51.8-11-70.28Z" style="fill:#455a64"></path><path d="M388.65,314.78c1.4-7.89,2.37-15.85,3.33-23.81s1.92-15.92,2.67-23.91c.43-4.52.89-9,1.16-13.56,0-.12-.19-.16-.22,0-1.39,7.87-2.4,15.83-3.41,23.77s-1.93,15.94-2.78,23.91c-.48,4.51-.88,9-1.15,13.56C388.24,314.93,388.61,315,388.65,314.78Z" style="fill:#263238"></path><path d="M381.77,239.75l-.13-2.59,0-.31c5.42,3.73,10.73,7.59,15.9,11.65,8.82,7.09,17.88,14.2,25.07,23A51.92,51.92,0,0,1,431.73,294a62.45,62.45,0,0,0-10.5-21.39,105.6,105.6,0,0,0-10.16-10.13c-8.29-7.52-20.72-17.81-29.37-25.16l.25-.12-.18,2.59Z" style="fill:#263238"></path><path d="M332.52,106.7c-3.29-6.34,6.07-6.59,6.07-6.59S325,97.22,324.16,89.37c-.81-7.57,10.51-7.48,11.32-7.48-.72-.16-13.11-3.14-13.16-11.12-.05-8.29,11.29-6.24,12-6.11-.63-.36-8.86-5.29-7.52-11.37,2.3-10.43,20.89,2,29.12-.68,0,0,0-18.74,0-19.18,0,0,11.05,8.41,14.24,12.25,3.82,4.61,8.47,10.3,9.23,14a7.85,7.85,0,0,1-3.66,8.6s7,2.82,7.27,9.1c.12,3.23-4.94,6.28-4.94,6.28s5.54,2.5,5.41,8.1c-.09,4.47-5.15,6.84-5.15,6.84s4.21,4.86,2.63,9.4C377.79,117.12,339.58,120.28,332.52,106.7Z" style="fill: rgb(173, 99, 89);"></path><path d="M377.58,99.06a.1.1,0,0,1,.05.2c-12.31,4.1-27.09,4.84-39.55.91-.4-.12-.37-.84.11-.79C351.79,101,364,101.3,377.58,99.06Z" style="fill:#263238"></path><path d="M378.26,83.69c.15,0,.19.22,0,.27-12.71,4.16-29.39,4.53-43.21-1.68-.47-.21-.68-.88-.12-.68C344.47,85,366,85.76,378.26,83.69Z" style="fill:#263238"></path><path d="M333.53,63.9c13.48,5.44,27.35,6,41.68,4.55.19,0,.2.25.05.31-6.82,2.62-16.05,2.6-23.23,2a38.41,38.41,0,0,1-18.69-6.37C333.12,64.22,333.24,63.78,333.53,63.9Z" style="fill:#263238"></path><path d="M332.52,288.14c-3.29-6.35,6.07-6.6,6.07-6.6S325,278.66,324.16,270.8c-.81-7.57,10.51-7.47,11.32-7.47-.72-.16-13.11-3.14-13.16-11.12-.05-8.3,11.29-6.25,12-6.11-.63-.36-8.86-5.3-7.52-11.37,2.3-10.43,20.89,2,29.12-.68,0,0,0-14.77,0-15.21,0,0,8.37,6.72,12.77,9.71,4.94,3.37,9.94,8.86,10.7,12.53a7.85,7.85,0,0,1-3.66,8.61s7,2.82,7.27,9.1c.12,3.22-4.94,6.28-4.94,6.28s5.54,2.5,5.41,8.1c-.09,4.47-5.15,6.83-5.15,6.83s4.21,4.87,2.63,9.4C377.79,298.56,339.58,301.71,332.52,288.14Z" style="fill: rgb(173, 99, 89);"></path><path d="M377.58,280.5a.1.1,0,0,1,.05.2c-12.31,4.1-27.09,4.83-39.55.91-.4-.13-.37-.85.11-.79C351.79,282.41,364,282.73,377.58,280.5Z" style="fill:#263238"></path><path d="M378.26,265.13c.15,0,.19.22,0,.27-12.71,4.16-29.39,4.53-43.21-1.68-.47-.22-.68-.88-.12-.68C344.47,266.48,366,267.2,378.26,265.13Z" style="fill:#263238"></path><path d="M333.53,245.33c13.48,5.45,27.35,6,41.68,4.56.19,0,.2.25.05.31-6.82,2.62-16.05,2.6-23.23,2a38.31,38.31,0,0,1-18.69-6.37C333.12,245.66,333.24,245.22,333.53,245.33Z" style="fill:#263238"></path></g><g id="freepik--character-1--inject-26"><rect x="144.04" width="1" height="411.63" style="fill:#ebebeb"></rect><path d="M91.6,258.12c-19.72,47.8-32.78,136.73-19,148.05,15.39,12.61,42.72-54.26,41.4-57-1-2.05-2.29-52.31-2.71-89.08S96.47,246.31,91.6,258.12Z" style="fill: rgb(247, 169, 160);"></path><path d="M114.37,349.12c-.47-5.24-1.48-71.8-2.48-92.58s-9.23-24-20.75.13-28.95,96-26.07,129.23c2.77,32,17.39,26,31.35,5.07C107.84,373.81,114.37,349.12,114.37,349.12Z" style="fill:#0D5E68"></path><path d="M107.84,276.35a22.78,22.78,0,0,0-1.53,6.35,22.47,22.47,0,0,0,3.11-5.75A23,23,0,0,0,111,270.6,23.44,23.44,0,0,0,107.84,276.35ZM81.45,345.24a22.56,22.56,0,0,0-5.57,3.43,22.8,22.8,0,0,0,6.26-1.87,22.41,22.41,0,0,0,5.59-3.42A23.63,23.63,0,0,0,81.45,345.24Zm-7.1,39.31a22.82,22.82,0,0,0-1.56,6.35,23,23,0,0,0,3.13-5.74,22.5,22.5,0,0,0,1.53-6.36A23.07,23.07,0,0,0,74.35,384.55Zm27.8-67.79a23.22,23.22,0,0,0-6.35-1.53,25.08,25.08,0,0,0,12.09,4.67A23.16,23.16,0,0,0,102.15,316.76Zm3.72,51.77A23.07,23.07,0,0,0,99.52,367a23.45,23.45,0,0,0,5.76,3.13c.54.2,1.09.39,1.64.56.21-.49.4-1,.59-1.45C107,369,106.42,368.75,105.87,368.53ZM79.45,296.31c-.61.29-1.21.58-1.81.9-.15.58-.31,1.17-.45,1.76a31,31,0,0,0,2.93-1.1,22.79,22.79,0,0,0,5.59-3.43A22.94,22.94,0,0,0,79.45,296.31Z" style="fill:#fff"></path><path d="M69.53,403.78c6,9.9,16.63,2.6,26.88-12.81,11.43-17.16,18-41.85,18-41.85-.46-5.24-1.47-71.8-2.47-92.57-.44-9.15-2.29-14.89-5.19-16.39Z" style="opacity:0.1"></path><path d="M144,411.63V235.47a50.17,50.17,0,0,0-7.47-4.79c-14.58-7.32-35.51,2.39-36.22,21.88C97.6,326.46,144,411.63,144,411.63Z" style="fill:#0D5E68"></path><path d="M138.61,367.05a21.22,21.22,0,0,0,5.36-1.46v-1.83A22.62,22.62,0,0,0,138.61,367.05ZM135,254.32a22.81,22.81,0,0,0-5.59,3.4,24.1,24.1,0,0,0,6.29-1.87,23,23,0,0,0,5.56-3.4A22.46,22.46,0,0,0,135,254.32Zm-24.56-18c-.86-.32-1.73-.61-2.62-.86-.35.33-.7.68-1,1a30.22,30.22,0,0,0,3.06,1.4,23,23,0,0,0,6.35,1.53A23.5,23.5,0,0,0,110.47,236.34Zm-2.63,40a22.78,22.78,0,0,0-1.53,6.35,22.47,22.47,0,0,0,3.11-5.75A23,23,0,0,0,111,270.6,23.44,23.44,0,0,0,107.84,276.35Zm17.73,63.32A21.86,21.86,0,0,0,124,346a23.56,23.56,0,0,0,3.11-5.74,24,24,0,0,0,1.53-6.35A23.56,23.56,0,0,0,125.57,339.67Zm3.75-42.45a22.52,22.52,0,0,0-6.35-1.53,22.9,22.9,0,0,0,5.74,3.11,22.52,22.52,0,0,0,6.35,1.53A23.9,23.9,0,0,0,129.32,297.22Z" style="fill:#fff"></path><path d="M109.93,257.66c8.49.83,18-14.34,19.51-25.61.1-.77-10.61-25.71-12.58-30.82-.4-1-29,20.17-29,20.17s7.29,9.5,10.68,18.43a12.53,12.53,0,0,1,.59,2.19,2.35,2.35,0,0,0,.09.36C100.06,246.62,105.59,257.24,109.93,257.66Z" style="fill: rgb(247, 169, 160);"></path><path d="M99.17,242.38a21.84,21.84,0,0,0,3.36-1.1c16.67-6.87,14.75-29.78,13.11-39.55-5.53,3.16-27.84,19.67-27.84,19.67s7.3,9.49,10.68,18.44a11,11,0,0,1,.6,2.17A2.18,2.18,0,0,0,99.17,242.38Z" style="fill:#263238"></path><path d="M114.07,163.45c6,11.23,6.51,47-.47,56.39-10.12,13.6-30.09,18.65-42.5,5.71-12-12.55-11.87-59.2-3.75-68.07C79.3,144.41,105.19,146.85,114.07,163.45Z" style="fill: rgb(247, 169, 160);"></path><path d="M88.66,190.4c0-.09.2.11.19.21,0,2.41.34,5.18,2.54,5.93.07,0,.06.15,0,.14C88.7,196.36,88.25,192.68,88.66,190.4Z" style="fill:#263238"></path><path d="M90.77,187.84c3.87-.37,4.32,7.4.73,7.74S87.52,188.15,90.77,187.84Z" style="fill:#263238"></path><path d="M74.28,191.2c0-.1-.18.12-.17.22.22,2.4.06,5.19-2.07,6.11-.07,0-.05.15,0,.14C74.7,197.14,74.87,193.44,74.28,191.2Z" style="fill:#263238"></path><path d="M72,188.81c-3.89-.07-3.74,7.71-.14,7.77S75.25,188.86,72,188.81Z" style="fill:#263238"></path><path d="M93,184c-1.09-.11-2.07-.39-3.13-.6s-2.19-.32-3.09-1.23a1.65,1.65,0,0,1,0-2c1-1.2,2.55-1.26,4-1a6,6,0,0,1,3.8,2.06A1.75,1.75,0,0,1,93,184Z" style="fill:#263238"></path><path d="M68.68,185.57a30.47,30.47,0,0,0,3-1.19,5.23,5.23,0,0,0,2.79-1.8,1.65,1.65,0,0,0-.35-2c-1.22-1-2.75-.75-4.13-.23a6,6,0,0,0-3.33,2.74A1.75,1.75,0,0,0,68.68,185.57Z" style="fill:#263238"></path><path d="M91.72,212.71c-.54.59-1.07,1.4-1.94,1.53a6.28,6.28,0,0,1-2.63-.46.08.08,0,0,0-.09.13A3.24,3.24,0,0,0,90.19,215,2.57,2.57,0,0,0,92,212.8C92,212.66,91.8,212.62,91.72,212.71Z" style="fill:#263238"></path><path d="M88.77,205.65a8.18,8.18,0,0,1-5.26,4,10.28,10.28,0,0,1-2.94.31,2.6,2.6,0,0,1-.56,0l-.53,0a.6.6,0,0,1-.52-.51v0a1,1,0,0,1,0-.25v-.23c-.16-1.85-.14-4.68-.14-4.68-.66.38-4,2.13-4,1.16,0-8,0-17,1.74-25a.22.22,0,0,1,.44,0c.29,7.73-.77,15.45-.6,23.22a14.36,14.36,0,0,1,3.8-1.4c.26.06-.13,5.47,0,6.29a.78.78,0,0,0,0,.09c3.13.22,5.42-.86,8.32-3.12C88.7,205.3,88.9,205.45,88.77,205.65Z" style="fill:#263238"></path><path d="M82.14,209.69a9.86,9.86,0,0,0,4.47,2.21,4.39,4.39,0,0,0,2.67-.37c1.8-.88,1.5-2.64.84-4.07a10.58,10.58,0,0,0-1.32-2.12A12.71,12.71,0,0,1,82.14,209.69Z" style="fill:#263238"></path><path d="M86.61,211.9a4.39,4.39,0,0,0,2.67-.37c1.8-.88,1.5-2.64.84-4.07C88.12,208.08,86.38,209.88,86.61,211.9Z" style="fill:#ff98b9"></path><path d="M117.66,193.08c-8.83,1.41-14.4-8.78-13.07-17.48,0,0-23.34,5.21-26.15-13.65,0,0-4.92,9.07-15.6,10.3l-1,6.79c-2.48-.49-5.67-7.14-.22-13.07,0,0-.42-9.49,6-15.77A13,13,0,0,1,81.36,147a19.58,19.58,0,0,1,13.93-4.77c8.8.35,13.08,8,13.08,8s11.9,1.2,14.62,9.34a17.29,17.29,0,0,1-1.07,14.08s3.22,3,2.35,10.23C123.72,188.53,120.31,192.66,117.66,193.08Z" style="fill:#263238"></path><path d="M78.82,160.22a22.47,22.47,0,0,0,.35,4.64,19.45,19.45,0,0,0,1.25,4.4,12,12,0,0,0,6.07,6.32c2.7,1.41,5.87,1.39,8.9,1.42,1.53-.18,3.08-.25,4.61-.52s3-.62,4.59-.88c-1.48.5-3,.93-4.48,1.41s-3.1.55-4.66.84C92.33,178,89,178,86,176.58a12.6,12.6,0,0,1-6.39-7A19,19,0,0,1,78.82,160.22Z" style="fill:#263238"></path><path d="M67.61,172.26a24.77,24.77,0,0,0,6.82-4.49,14.88,14.88,0,0,0,2.51-3.13,18.6,18.6,0,0,0,1.67-3.77,10.07,10.07,0,0,1-.92,4.16,10.93,10.93,0,0,1-2.5,3.52A13.66,13.66,0,0,1,71.66,171,13,13,0,0,1,67.61,172.26Z" style="fill:#263238"></path><path d="M110.88,193.09s6.36-12.35,11.86-10.23,1.78,19.28-3.93,22.33a6.16,6.16,0,0,1-8.63-2.18Z" style="fill: rgb(247, 169, 160);"></path><path d="M121.55,187.75c.09,0,.13.11,0,.16-4,2.28-5.67,6.48-6.68,10.74,1-1.72,2.64-2.81,4.93-1.6.12.06,0,.25-.09.24a3.79,3.79,0,0,0-4,1.87,18,18,0,0,0-1.52,3.62c-.15.4-.86.29-.77-.16a.43.43,0,0,1,0-.11C112.69,197.16,115.85,189.07,121.55,187.75Z" style="fill:#263238"></path><path d="M74,405c14.18,1.52,27.8-7.28,72.46-41.95,6.18-4.8-10.15-59.52-18-56.57-10.42,3.93-43.95,30.71-46.08,32.86C64.5,357.46,64.39,404,74,405Z" style="fill: rgb(247, 169, 160);"></path><path d="M119.36,308.12l8.94,73.05S87.48,410.8,73.22,408c-9.39-1.86-10.28-51.8,11-70.28Z" style="fill:#0D5E68"></path><path d="M98.38,399.9A22.11,22.11,0,0,0,95,394.31a23.66,23.66,0,0,0,1.87,6.26l.08.17L98.4,400A.14.14,0,0,0,98.38,399.9ZM81.45,345.24a22.56,22.56,0,0,0-5.57,3.43,22.8,22.8,0,0,0,6.26-1.87,22.41,22.41,0,0,0,5.59-3.42A23.63,23.63,0,0,0,81.45,345.24Zm-7.1,39.31a22.82,22.82,0,0,0-1.56,6.35,23,23,0,0,0,3.13-5.74,22.5,22.5,0,0,0,1.53-6.36A23.07,23.07,0,0,0,74.35,384.55Zm32.17-65.62-.79.67a16.76,16.76,0,0,0,2.16.3C107.44,319.55,107,319.23,106.52,318.93Zm-.65,49.6A23.07,23.07,0,0,0,99.52,367a23.45,23.45,0,0,0,5.76,3.13,23.2,23.2,0,0,0,6.36,1.53A22.76,22.76,0,0,0,105.87,368.53Z" style="fill:#fff"></path><path d="M112.73,385.23c-1.39-7.89-2.37-15.85-3.32-23.81s-1.93-15.93-2.68-23.91c-.43-4.52-.88-9-1.15-13.56,0-.12.19-.16.21,0,1.4,7.88,2.41,15.84,3.41,23.78s1.93,15.93,2.78,23.91c.48,4.51.88,9,1.15,13.56C113.14,385.38,112.77,385.46,112.73,385.23Z" style="fill:#263238"></path><path d="M119.61,310.2l.13-2.59,0-.31C114.35,311,109,314.89,103.86,319,95,326,86,333.15,78.79,342a51.9,51.9,0,0,0-9.13,22.45A62.17,62.17,0,0,1,80.15,343a105.71,105.71,0,0,1,10.17-10.13c8.28-7.52,20.72-17.81,29.36-25.16l-.25-.12.18,2.59Z" style="fill:#263238"></path><path d="M167.46,358.59c3.3-6.35-6.06-6.6-6.06-6.6s13.55-2.89,14.42-10.74c.81-7.57-10.51-7.47-11.32-7.47.72-.16,13.11-3.14,13.17-11.12.05-8.3-11.3-6.25-12-6.11.63-.36,8.86-5.3,7.53-11.37-2.3-10.43-20.9,2-29.12-.68,0,0,0-14.77,0-15.21l-6.72-1.89c-2.09,3.63-5.45,7.55-8.64,11.39-3.82,4.61-7.35,9.07-8.11,12.74a7.82,7.82,0,0,0,3.66,8.6s-7,2.83-7.28,9.11c-.12,3.22,4.94,6.28,4.94,6.28s-5.54,2.49-5.4,8.1c.09,4.47,5.14,6.83,5.14,6.83s-4.2,4.87-2.62,9.4C122.2,369,160.4,372.16,167.46,358.59Z" style="fill: rgb(247, 169, 160);"></path><path d="M140.88,302.22l3.19-12.89c0-12.51-15.24-28.07-18.47-17.45-2.47,8.07,6.82,19,3.09,26.91h0Z" style="fill: rgb(247, 169, 160);"></path><path d="M122.41,351a.1.1,0,0,0-.06.2c12.31,4.1,27.1,4.83,39.55.91.41-.13.38-.85-.1-.79C148.19,352.86,136,353.18,122.41,351Z" style="fill:#263238"></path><path d="M121.72,335.58c-.14,0-.19.22,0,.27,12.71,4.16,29.38,4.53,43.2-1.68.48-.22.69-.88.12-.68C155.51,336.92,133.94,337.65,121.72,335.58Z" style="fill:#263238"></path><path d="M166.46,315.78c-13.49,5.45-27.36,6-41.69,4.56-.18,0-.19.25,0,.31,6.82,2.62,16,2.6,23.23,2a38.31,38.31,0,0,0,18.69-6.37C166.87,316.1,166.74,315.67,166.46,315.78Z" style="fill:#263238"></path></g><g id="freepik--speech-bubble--inject-26"><path d="M210,142.38a37.53,37.53,0,0,1-62.72,23.74l-18.78,2.76,9.4-16.24A37.54,37.54,0,1,1,210,142.38Z" style="fill:#fff"></path><path d="M210,142.38a37.85,37.85,0,0,1-7.58,19,40.69,40.69,0,0,1-3.4,3.91,42.1,42.1,0,0,1-4,3.36,37.22,37.22,0,0,1-9.06,5,36.37,36.37,0,0,1-15.32,2.51,33.46,33.46,0,0,1-5.19-.54,38,38,0,0,1-18.58-9.17l.45.13-18.76,2.88-1.36.21.69-1.2,9.34-16.26-.05.64a38,38,0,0,1,2.31-33.46,38.37,38.37,0,0,1,11.76-12.52,38.19,38.19,0,0,1,33-4.44,38.32,38.32,0,0,1,14.47,8.88A37.75,37.75,0,0,1,210,142.38Zm0,0a37.14,37.14,0,0,0-42.57-40.63,36.83,36.83,0,0,0-15.5,6.13,38.62,38.62,0,0,0-11.24,12.25A37.17,37.17,0,0,0,135.94,136a37.59,37.59,0,0,0,2.64,16.35l.14.34-.18.31-9.45,16.2-.68-1,18.8-2.63.26,0,.19.17a36.92,36.92,0,0,0,18,9.26,32.31,32.31,0,0,0,5.09.62,35.27,35.27,0,0,0,5.14,0,37.13,37.13,0,0,0,10-2.2,35.2,35.2,0,0,0,9.05-4.88,43.24,43.24,0,0,0,4-3.31,41.87,41.87,0,0,0,3.41-3.88A37.69,37.69,0,0,0,210,142.38Z" style="fill:#263238"></path><path d="M176.15,139.61a3.38,3.38,0,1,1-3.38-3.37A3.38,3.38,0,0,1,176.15,139.61Z" style="fill:#263238"></path><path d="M159.86,139.61a3.38,3.38,0,1,1-3.38-3.37A3.38,3.38,0,0,1,159.86,139.61Z" style="fill:#263238"></path><path d="M192.43,139.61a3.38,3.38,0,1,1-3.38-3.37A3.38,3.38,0,0,1,192.43,139.61Z" style="fill:#263238"></path></g></svg>