<svg width="1440" height="365" viewBox="0 0 1440 365" fill="none" xmlns="http://www.w3.org/2000/svg">
<path d="M-93 15C-93 6.71574 -86.2843 0 -78 0H1514C1522.28 0 1529 6.71573 1529 15V350C1529 358.284 1522.28 365 1514 365H-78C-86.2843 365 -93 358.284 -93 350V15Z" fill="url(#paint0_radial_90_205)"/>
<path d="M-93 15C-93 6.71574 -86.2843 0 -78 0H1514C1522.28 0 1529 6.71573 1529 15V350C1529 358.284 1522.28 365 1514 365H-78C-86.2843 365 -93 358.284 -93 350V15Z" fill="url(#paint1_radial_90_205)"/>
<path d="M-93 15C-93 6.71574 -86.2843 0 -78 0H1514C1522.28 0 1529 6.71573 1529 15V350C1529 358.284 1522.28 365 1514 365H-78C-86.2843 365 -93 358.284 -93 350V15Z" fill="url(#paint2_radial_90_205)"/>
<path d="M-93 15C-93 6.71574 -86.2843 0 -78 0H1514C1522.28 0 1529 6.71573 1529 15V350C1529 358.284 1522.28 365 1514 365H-78C-86.2843 365 -93 358.284 -93 350V15Z" fill="url(#paint3_radial_90_205)"/>
<defs>
<radialGradient id="paint0_radial_90_205" cx="0" cy="0" r="1" gradientUnits="userSpaceOnUse" gradientTransform="translate(1447.9 365) rotate(-166.337) scale(622.304 535.031)">
<stop stop-color="#063D5B"/>
<stop offset="1" stop-color="#11567C" stop-opacity="0"/>
</radialGradient>
<radialGradient id="paint1_radial_90_205" cx="0" cy="0" r="1" gradientUnits="userSpaceOnUse" gradientTransform="translate(0.905248 383) rotate(-20.5379) scale(517.348 1278.85)">
<stop stop-color="#108A92"/>
<stop offset="1" stop-color="#2AA4AC" stop-opacity="0"/>
</radialGradient>
<radialGradient id="paint2_radial_90_205" cx="0" cy="0" r="1" gradientUnits="userSpaceOnUse" gradientTransform="translate(686.698 -60.9999) rotate(115.972) scale(492.21 1975.03)">
<stop stop-color="#25986F"/>
<stop offset="1" stop-color="#54E8B2" stop-opacity="0"/>
<stop offset="1" stop-color="#3BB589" stop-opacity="0"/>
</radialGradient>
<radialGradient id="paint3_radial_90_205" cx="0" cy="0" r="1" gradientUnits="userSpaceOnUse" gradientTransform="translate(718 404) rotate(-76.0018) scale(482.323 1382.35)">
<stop stop-color="#0C5D8A"/>
<stop offset="1" stop-color="#0A7AB9" stop-opacity="0"/>
</radialGradient>
</defs>
</svg>
