<svg width="1140" height="365" viewBox="0 0 1140 365" fill="none" xmlns="http://www.w3.org/2000/svg">
<path d="M0 15C0 6.71574 6.71573 0 15 0H1125C1133.28 0 1140 6.71573 1140 15V350C1140 358.284 1133.28 365 1125 365H15C6.71574 365 0 358.284 0 350V15Z" fill="url(#paint0_radial_90_205)"/>
<path d="M0 15C0 6.71574 6.71573 0 15 0H1125C1133.28 0 1140 6.71573 1140 15V350C1140 358.284 1133.28 365 1125 365H15C6.71574 365 0 358.284 0 350V15Z" fill="url(#paint1_radial_90_205)"/>
<path d="M0 15C0 6.71574 6.71573 0 15 0H1125C1133.28 0 1140 6.71573 1140 15V350C1140 358.284 1133.28 365 1125 365H15C6.71574 365 0 358.284 0 350V15Z" fill="url(#paint2_radial_90_205)"/>
<path d="M0 15C0 6.71574 6.71573 0 15 0H1125C1133.28 0 1140 6.71573 1140 15V350C1140 358.284 1133.28 365 1125 365H15C6.71574 365 0 358.284 0 350V15Z" fill="url(#paint3_radial_90_205)"/>
<defs>
<radialGradient id="paint0_radial_90_205" cx="0" cy="0" r="1" gradientUnits="userSpaceOnUse" gradientTransform="translate(1083 365) rotate(-160.92) scale(449.704 520.366)">
<stop stop-color="#063D5B"/>
<stop offset="1" stop-color="#11567C" stop-opacity="0"/>
</radialGradient>
<radialGradient id="paint1_radial_90_205" cx="0" cy="0" r="1" gradientUnits="userSpaceOnUse" gradientTransform="translate(66 383) rotate(-28.0594) scale(385.853 1205.13)">
<stop stop-color="#108A92"/>
<stop offset="1" stop-color="#2AA4AC" stop-opacity="0"/>
</radialGradient>
<radialGradient id="paint2_radial_90_205" cx="0" cy="0" r="1" gradientUnits="userSpaceOnUse" gradientTransform="translate(548 -60.9999) rotate(108.9) scale(467.716 1460.81)">
<stop stop-color="#25986F"/>
<stop offset="1" stop-color="#54E8B2" stop-opacity="0"/>
<stop offset="1" stop-color="#3BB589" stop-opacity="0"/>
</radialGradient>
<radialGradient id="paint3_radial_90_205" cx="0" cy="0" r="1" gradientUnits="userSpaceOnUse" gradientTransform="translate(570 404) rotate(-80.0619) scale(475.129 986.276)">
<stop stop-color="#0C5D8A"/>
<stop offset="1" stop-color="#0A7AB9" stop-opacity="0"/>
</radialGradient>
</defs>
</svg>
